<svg width="205" height="42" viewBox="0 0 205 42" fill="none" xmlns="http://www.w3.org/2000/svg">
<g clip-path="url(#clip0_1_310)">
<path d="M13.1467 17.5326L21.071 9.57292L28.9984 17.5391L33.6067 12.9051L21.071 0.304932L8.53528 12.9019L13.1467 17.5326Z" fill="#00E3A5"/>
<path d="M0.667297 20.8055L5.27707 16.1732L9.88685 20.8055L5.27707 25.4378L0.667297 20.8055Z" fill="#00E3A5"/>
<path d="M13.1467 24.0772L21.0709 32.0402L28.9984 24.074L33.6098 28.7015L33.6066 28.7047L21.0709 41.3049L8.53519 28.7112L8.52875 28.7047L13.1467 24.0772Z" fill="#00E3A5"/>
<path d="M32.2472 20.8068L36.857 16.1745L41.4668 20.8068L36.857 25.4391L32.2472 20.8068Z" fill="#00E3A5"/>
<path d="M25.7468 20.8033L21.0709 16.1013L17.6131 19.576L17.2135 19.9743L16.395 20.7968L16.3885 20.8033L16.395 20.813L21.0709 25.5086L25.7468 20.8066L25.75 20.8033H25.7468Z" fill="#00E3A5"/>
<path d="M48.6592 10.2402H58.6878C61.1756 10.2402 63.0576 10.8879 64.3337 12.1832C64.8145 12.6617 65.1935 13.2333 65.4478 13.8635C65.702 14.4936 65.8263 15.1691 65.8129 15.849V15.9105C65.8215 16.4674 65.7443 17.0223 65.5841 17.5555C65.4413 18.0145 65.234 18.4507 64.9685 18.8509C64.7211 19.2282 64.4216 19.5683 64.0791 19.8612C63.7445 20.1506 63.378 20.4005 62.9867 20.606C64.1151 21.001 65.1298 21.6681 65.9418 22.549C66.6593 23.3693 67.0181 24.5027 67.0181 25.9492V26.0107C67.0385 26.9141 66.8429 27.8091 66.4477 28.6208C66.0648 29.3686 65.5034 30.0094 64.8139 30.486C64.0343 31.0113 63.1662 31.3898 62.2519 31.6032C61.1657 31.8621 60.0522 31.9871 58.9359 31.9756H48.6592V10.2402ZM57.6824 19.029C58.55 19.0711 59.4135 18.8835 60.1863 18.4849C60.4877 18.308 60.7337 18.0499 60.8966 17.7397C61.0595 17.4295 61.1327 17.0796 61.1079 16.7298V16.6682C61.1239 16.3459 61.0587 16.0247 60.9185 15.7343C60.7782 15.444 60.5674 15.1938 60.3055 15.007C59.7706 14.6249 58.9982 14.4338 57.9885 14.4338H53.2965V19.029H57.6824ZM58.9488 27.7885C59.8133 27.8372 60.6737 27.6385 61.4302 27.2154C61.7249 27.0251 61.9635 26.7589 62.121 26.4445C62.2786 26.1301 62.3494 25.779 62.3261 25.4278V25.3663C62.3377 25.0325 62.2677 24.7008 62.1221 24.4005C61.9766 24.1002 61.7601 23.8402 61.4914 23.6435C60.9371 23.2117 60.0413 22.9959 58.8038 22.9959H53.2965V27.7885H58.9488Z" fill="#00E3A5"/>
<path d="M72.9927 10.2402H77.7524V31.9821H72.9927V10.2402Z" fill="#00E3A5"/>
<path d="M84.9548 10.2402H89.3439L99.4884 23.6209V10.2402H104.187V31.9821H100.136L89.6597 18.1611V31.9821H84.9548V10.2402Z" fill="#00E3A5"/>
<path d="M118.598 10.0847H122.981L132.252 31.982H127.283L125.304 27.1052H116.156L114.177 31.982H109.324L118.598 10.0847ZM123.606 22.8824L120.725 15.8294L117.857 22.8824H123.606Z" fill="#00E3A5"/>
<path d="M137.398 10.2402H141.788L151.926 23.6209V10.2402H156.624V31.9821H152.573L142.097 18.1611V31.9821H137.398V10.2402Z" fill="#00E3A5"/>
<path d="M173.755 32.3641C172.238 32.3771 170.734 32.0819 169.334 31.4962C168.015 30.9491 166.819 30.1424 165.816 29.1235C164.812 28.1046 164.022 26.8942 163.491 25.5637C162.931 24.1719 162.648 22.6835 162.657 21.1823V21.1207C162.632 18.1617 163.765 15.3112 165.812 13.1837C166.819 12.1444 168.024 11.3205 169.356 10.7614C170.805 10.1583 172.361 9.85757 173.929 9.87738C174.857 9.87043 175.783 9.95394 176.694 10.1267C177.474 10.2749 178.236 10.5039 178.969 10.81C179.634 11.0913 180.267 11.4453 180.854 11.8657C181.428 12.2757 181.967 12.7328 182.466 13.2323L179.44 16.7426C178.666 16.0257 177.799 15.4188 176.862 14.9388C175.941 14.4964 174.93 14.2747 173.91 14.2912C173.061 14.2821 172.219 14.4547 171.441 14.7975C170.663 15.1403 169.967 15.6455 169.398 16.2795C168.834 16.9119 168.393 17.6444 168.096 18.4394C167.786 19.2796 167.63 20.1695 167.636 21.0657V21.1272C167.633 22.0221 167.789 22.9104 168.096 23.7502C168.389 24.5481 168.826 25.2848 169.385 25.9231C169.949 26.565 170.644 27.0776 171.423 27.4262C172.201 27.7749 173.045 27.9514 173.897 27.9438C174.982 27.9782 176.059 27.7435 177.032 27.2605C177.959 26.7529 178.816 26.1259 179.582 25.3953L182.611 28.4717C182.076 29.055 181.497 29.5963 180.88 30.0908C180.274 30.5725 179.616 30.9842 178.918 31.3181C178.174 31.6699 177.391 31.9298 176.585 32.0921C175.653 32.2797 174.705 32.3709 173.755 32.3641Z" fill="#00E3A5"/>
<path d="M188.228 10.2402H204.511V14.4953H192.91V18.9059H203.126V23.161H192.926V27.727H204.672V31.9821H188.237L188.228 10.2402Z" fill="#00E3A5"/>
</g>
<defs>
<clipPath id="clip0_1_310">
<rect width="204" height="41" fill="white" transform="translate(0.668945 0.304932)"/>
</clipPath>
</defs>
</svg>
