<svg width="179" height="29" viewBox="0 0 179 29" fill="none" xmlns="http://www.w3.org/2000/svg">
<g clip-path="url(#clip0_1_325)">
<path d="M15.8045 0.83667H32.4378C32.4277 1.05257 32.3517 1.26051 32.2196 1.43346C31.6565 2.38114 31.1498 3.36751 30.5965 4.31519C29.8139 5.67593 29.0819 7.06154 28.2865 8.41675C27.7826 9.39207 27.2139 10.337 26.6761 11.2957C23.444 11.2957 20.212 11.2957 16.9799 11.2957C16.811 11.2957 16.6435 11.304 16.4745 11.3137C16.3338 11.6784 16.1001 11.9975 15.9115 12.3401C15.6651 12.7324 15.4652 13.151 15.2217 13.5434C14.9641 14.0711 14.6079 14.5435 14.3489 15.0699C13.814 15.9609 13.3143 16.8658 12.7906 17.7665C12.2444 18.6875 11.7104 19.6213 11.1887 20.5681C10.9678 20.9036 10.7644 21.2499 10.5791 21.6056C9.48534 23.4733 8.42675 25.3576 7.33157 27.224C7.23867 27.4246 7.11631 27.6108 6.96838 27.7766C5.09615 27.7641 3.22391 27.7766 1.35168 27.7766C1.12108 27.7809 0.891856 27.8124 0.668945 27.8705C0.668945 27.3621 1.01524 26.9546 1.24892 26.5277C1.53045 25.9544 1.90631 25.4226 2.18926 24.8479C4.43312 20.9079 6.65306 16.9542 8.88988 13.0115C9.39666 12.155 9.83163 11.2805 10.3412 10.4406C10.9775 9.33543 11.5701 8.20539 12.2332 7.11265C12.4443 6.65539 12.7287 6.23681 12.9609 5.79059C13.7858 4.34973 14.5953 2.90057 15.4174 1.45971C15.5149 1.23469 15.6453 1.0248 15.8045 0.83667Z" fill="#00E3A5"/>
<path d="M35.0786 6.6376C36.1865 4.73809 37.2563 2.81786 38.3797 0.926636H44.3877C44.4753 0.93098 44.5621 0.944409 44.6467 0.966698C44.4468 1.26371 44.2793 1.57869 44.1034 1.88813C42.6544 4.44016 41.2096 6.99356 39.7691 9.54834C39.1638 10.5886 38.6007 11.6523 37.9869 12.687L37.9264 12.7077L37.9151 12.8376C35.0904 17.8109 32.275 22.7878 29.469 27.7685C23.9536 27.774 18.4378 27.774 12.9215 27.7685C13.2354 27.1247 13.6071 26.5099 13.9562 25.8841C15.5272 23.0494 17.139 20.2395 18.6874 17.4047C22.0762 17.3992 25.465 17.3992 28.8538 17.4047C30.947 13.8267 32.9952 10.2211 35.073 6.6376H35.0786Z" fill="#00E3A5"/>
<path d="M97.0834 0.853394V28.0958H101.894V8.93909L110.668 21.556L119.371 8.63932V28.0958H124.322V0.853394H118.997L110.703 13.4288L102.316 0.853394H97.0834Z" fill="#00E3A5"/>
<path d="M74.5842 7.87952H77.7276V28.3252H74.5842V7.87952Z" fill="#00E3A5"/>
<path d="M74.3138 0.304932H77.9978V3.7351H74.3138V0.304932Z" fill="#00E3A5"/>
<path d="M83.7342 2.02063H87.0183V7.87941H93.4937V10.7349H87.0183V22.8807C87.0126 23.3487 87.1233 23.811 87.3407 24.2276C87.8967 25.2637 89.4072 26.4932 93.4937 25.0565V27.7034C93.4937 27.7034 89.7633 29.7756 86.3848 27.8885C86.3848 27.8885 84.7069 27.1895 84.0016 24.83C83.8184 24.1979 83.7284 23.5434 83.7342 22.8862V10.6893L80.9652 10.7349V7.87941H83.7567L83.7342 2.02063Z" fill="#00E3A5"/>
<path d="M129.39 0.853394V28.2796H150.27V23.8589H134.482V16.5827H148.394V12.2311H134.458V5.3017H150.107V0.853394H129.39Z" fill="#00E3A5"/>
<path d="M152.23 0.853394H158.177L165.005 10.4822L171.778 0.853394H177.726L168.013 14.2287L178.331 28.2561H172.067L165.028 18.0112L157.649 28.2796H151.702L161.872 14.3503L152.23 0.853394Z" fill="#00E3A5"/>
<path d="M64.964 14.0505C64.964 14.0505 69.5629 12.3471 69.2814 7.44293C69.2814 7.44293 69.2434 2.72662 63.8322 1.27056C62.9325 1.03398 62.0045 0.916896 61.0731 0.922428H48.0956L48.1308 28.1649H62.1022C62.1022 28.1649 70.278 27.9922 70.8538 20.8431C70.8538 20.8431 71.4394 15.8464 64.964 14.0505ZM51.4501 3.73509H59.733C66.2309 3.71298 66.0437 8.20274 66.0437 8.20274C66.1408 13.3252 60.1778 13.2216 60.1778 13.2216H51.4501V3.73509ZM61.5855 25.2859H51.4501V15.8008H61.1407C67.6386 15.7773 67.4514 20.267 67.4514 20.267C67.5485 25.3895 61.5855 25.2859 61.5855 25.2859Z" fill="#00E3A5"/>
</g>
<defs>
<clipPath id="clip0_1_325">
<rect width="177.662" height="28.3766" fill="white" transform="translate(0.668945 0.304932)"/>
</clipPath>
</defs>
</svg>
