<svg width="96" height="97" viewBox="0 0 96 97" fill="none" xmlns="http://www.w3.org/2000/svg">
<path d="M81 84.5264V48.5264H57V84.5264H45V36.5264H21V84.5264H12V6.52637H6V84.5264C6 86.1177 6.63214 87.6438 7.75736 88.769C8.88258 89.8942 10.4087 90.5264 12 90.5264H90V84.5264H81ZM39 42.5264V60.5264H27V42.5264H39ZM75 54.5264V72.5264H63V54.5264H75Z" fill="#00E3A5"/>
<path d="M68.3598 42.5264C67.0861 42.5273 65.8455 42.1205 64.8198 41.3654L33.6168 18.4874L24.7278 30.5264L19.9128 26.9444L28.8588 14.9444C29.789 13.692 31.1708 12.8516 32.7108 12.6018C34.2507 12.352 35.8273 12.7123 37.1058 13.6064L68.3688 36.5264L79.1808 21.9464L84.0018 25.5164L73.1898 40.1024C72.6302 40.8559 71.9018 41.4677 71.063 41.8887C70.2242 42.3096 69.2983 42.5281 68.3598 42.5264Z" fill="#00E3A5"/>
</svg>
