<svg width="97" height="97" viewBox="0 0 97 97" fill="none" xmlns="http://www.w3.org/2000/svg">
<path d="M66.7988 76.7646C69.451 76.7646 71.9945 75.7111 73.8699 73.8357C75.7453 71.9604 76.7988 69.4168 76.7988 66.7646C76.7988 64.1125 75.7453 61.5689 73.8699 59.6936C71.9945 57.8182 69.451 56.7646 66.7988 56.7646C64.1467 56.7646 61.6031 57.8182 59.7278 59.6936C57.8524 61.5689 56.7988 64.1125 56.7988 66.7646C56.7988 69.4168 57.8524 71.9604 59.7278 73.8357C61.6031 75.7111 64.1467 76.7646 66.7988 76.7646ZM30.7988 40.7647C33.451 40.7647 35.9945 39.7111 37.8699 37.8357C39.7453 35.9604 40.7988 33.4168 40.7988 30.7646C40.7988 28.1125 39.7453 25.5689 37.8699 23.6936C35.9945 21.8182 33.451 20.7646 30.7988 20.7646C28.1467 20.7646 25.6031 21.8182 23.7278 23.6936C21.8524 25.5689 20.7988 28.1125 20.7988 30.7646C20.7988 33.4168 21.8524 35.9604 23.7278 37.8357C25.6031 39.7111 28.1467 40.7647 30.7988 40.7647ZM22.7988 84.7646C25.451 84.7646 27.9945 83.7111 29.8699 81.8357C31.7453 79.9604 32.7988 77.4168 32.7988 74.7647C32.7988 72.1125 31.7453 69.5689 29.8699 67.6936C27.9945 65.8182 25.451 64.7646 22.7988 64.7646C20.1467 64.7646 17.6031 65.8182 15.7278 67.6936C13.8524 69.5689 12.7988 72.1125 12.7988 74.7647C12.7988 77.4168 13.8524 79.9604 15.7278 81.8357C17.6031 83.7111 20.1467 84.7646 22.7988 84.7646ZM74.7988 32.7646C77.451 32.7646 79.9945 31.7111 81.8699 29.8357C83.7453 27.9604 84.7988 25.4168 84.7988 22.7646C84.7988 20.1125 83.7453 17.5689 81.8699 15.6936C79.9945 13.8182 77.451 12.7646 74.7988 12.7646C72.1467 12.7646 69.6031 13.8182 67.7278 15.6936C65.8524 17.5689 64.7988 20.1125 64.7988 22.7646C64.7988 25.4168 65.8524 27.9604 67.7278 29.8357C69.6031 31.7111 72.1467 32.7646 74.7988 32.7646ZM48.7988 84.7646L56.7988 76.7646L48.7988 84.7646Z" fill="#00E3A5"/>
<path d="M40.7988 20.7646L48.7988 12.7646M32.7988 64.7647L64.7988 32.7646M48.7988 84.7646L56.7988 76.7647M66.7988 76.7647C69.451 76.7647 71.9945 75.7111 73.8699 73.8357C75.7453 71.9604 76.7988 69.4168 76.7988 66.7646C76.7988 64.1125 75.7453 61.5689 73.8699 59.6936C71.9945 57.8182 69.451 56.7646 66.7988 56.7646C64.1467 56.7646 61.6031 57.8182 59.7278 59.6936C57.8524 61.5689 56.7988 64.1125 56.7988 66.7646C56.7988 69.4168 57.8524 71.9604 59.7278 73.8357C61.6031 75.7111 64.1467 76.7647 66.7988 76.7647ZM30.7988 40.7647C33.451 40.7647 35.9945 39.7111 37.8699 37.8357C39.7453 35.9604 40.7988 33.4168 40.7988 30.7646C40.7988 28.1125 39.7453 25.5689 37.8699 23.6936C35.9945 21.8182 33.451 20.7646 30.7988 20.7646C28.1467 20.7646 25.6031 21.8182 23.7278 23.6936C21.8524 25.5689 20.7988 28.1125 20.7988 30.7646C20.7988 33.4168 21.8524 35.9604 23.7278 37.8357C25.6031 39.7111 28.1467 40.7647 30.7988 40.7647ZM22.7988 84.7646C25.451 84.7646 27.9945 83.7111 29.8699 81.8357C31.7453 79.9604 32.7988 77.4168 32.7988 74.7647C32.7988 72.1125 31.7453 69.5689 29.8699 67.6936C27.9945 65.8182 25.451 64.7647 22.7988 64.7647C20.1467 64.7647 17.6031 65.8182 15.7278 67.6936C13.8524 69.5689 12.7988 72.1125 12.7988 74.7647C12.7988 77.4168 13.8524 79.9604 15.7278 81.8357C17.6031 83.7111 20.1467 84.7646 22.7988 84.7646ZM74.7988 32.7646C77.451 32.7646 79.9945 31.7111 81.8699 29.8357C83.7453 27.9604 84.7988 25.4168 84.7988 22.7646C84.7988 20.1125 83.7453 17.5689 81.8699 15.6936C79.9945 13.8182 77.451 12.7646 74.7988 12.7646C72.1467 12.7646 69.6031 13.8182 67.7278 15.6936C65.8524 17.5689 64.7988 20.1125 64.7988 22.7646C64.7988 25.4168 65.8524 27.9604 67.7278 29.8357C69.6031 31.7111 72.1467 32.7646 74.7988 32.7646Z" stroke="#00E3A5" stroke-width="5" stroke-linecap="round" stroke-linejoin="round"/>
</svg>
