<svg width="789" height="680" viewBox="0 0 789 680" fill="none" xmlns="http://www.w3.org/2000/svg">
<g clip-path="url(#clip0_1_355)" filter="url(#filter0_f_1_355)">
<path d="M144.357 59.999V176.999L180.16 153.18V76.2523L144.357 59.999ZM127.704 151.444L98.876 161.96V70.1683L127.704 77.2955V151.444ZM60.1601 148.748L82.2235 143.878V85.2905L60.2652 82.3363L60.1601 148.748Z" fill="#FFB413"/>
</g>
<g filter="url(#filter1_b_1_355)">
<rect x="17.1601" y="81.999" width="317" height="229" rx="15" fill="url(#paint0_linear_1_355)"/>
<rect x="17.6601" y="82.499" width="316" height="228" rx="14.5" stroke="url(#paint1_linear_1_355)"/>
</g>
<g clip-path="url(#clip1_1_355)" filter="url(#filter2_f_1_355)">
<path d="M589.542 184.299V301.299L622.66 277.48V200.553L589.542 184.299ZM574.138 275.745L547.472 286.26V194.469L574.138 201.596V275.745ZM511.66 273.049L532.069 268.179V209.591L511.757 206.637L511.66 273.049Z" fill="#FF5A13"/>
</g>
<g clip-path="url(#clip2_1_355)" filter="url(#filter3_f_1_355)">
<path d="M256.816 334.999V431.999L285.16 412.251V348.474L256.816 334.999ZM243.633 410.813L220.81 419.53V343.43L243.633 349.339V410.813ZM190.16 408.578L207.627 404.54V355.967L190.243 353.518L190.16 408.578Z" fill="#2FB8EB"/>
</g>
<g clip-path="url(#clip3_1_355)" filter="url(#filter4_f_1_355)">
<path d="M696.896 449.999V546.999L721.66 527.251V463.474L696.896 449.999ZM685.378 525.813L665.439 534.53V458.43L685.378 464.339V525.813ZM638.66 523.578L653.921 519.54V470.967L638.733 468.518L638.66 523.578Z" fill="#00E3A5"/>
</g>
<g filter="url(#filter5_b_1_355)">
<rect x="130.16" y="337.999" width="317" height="229" rx="15" fill="url(#paint2_linear_1_355)"/>
<rect x="130.66" y="338.499" width="316" height="228" rx="14.5" stroke="url(#paint3_linear_1_355)"/>
</g>
<g filter="url(#filter6_b_1_355)">
<rect x="358.66" y="197.299" width="318" height="229" rx="15" fill="url(#paint4_linear_1_355)"/>
<rect x="359.16" y="197.799" width="317" height="228" rx="14.5" stroke="url(#paint5_linear_1_355)"/>
</g>
<g filter="url(#filter7_b_1_355)">
<rect x="470.66" y="450.999" width="318" height="229" rx="15" fill="url(#paint6_linear_1_355)"/>
<rect x="471.16" y="451.499" width="317" height="228" rx="14.5" stroke="url(#paint7_linear_1_355)"/>
</g>
<path d="M127.72 243.899V259.299H125.696V247.265L120.658 255.647H120.394L115.356 247.287V259.299H113.31V243.899H115.62L120.526 252.039L125.41 243.899H127.72ZM139.923 248.299H141.837V259.299H139.923V257.407C138.97 258.859 137.584 259.585 135.765 259.585C134.225 259.585 132.913 259.028 131.827 257.913C130.742 256.784 130.199 255.413 130.199 253.799C130.199 252.186 130.742 250.822 131.827 249.707C132.913 248.578 134.225 248.013 135.765 248.013C137.584 248.013 138.97 248.739 139.923 250.191V248.299ZM136.007 257.737C137.122 257.737 138.053 257.363 138.801 256.615C139.549 255.853 139.923 254.914 139.923 253.799C139.923 252.685 139.549 251.753 138.801 251.005C138.053 250.243 137.122 249.861 136.007 249.861C134.907 249.861 133.983 250.243 133.235 251.005C132.487 251.753 132.113 252.685 132.113 253.799C132.113 254.914 132.487 255.853 133.235 256.615C133.983 257.363 134.907 257.737 136.007 257.737ZM146.651 250.147C147.282 248.783 148.426 248.101 150.083 248.101V250.103C149.144 250.059 148.338 250.309 147.663 250.851C146.988 251.394 146.651 252.267 146.651 253.469V259.299H144.737V248.299H146.651V250.147ZM161.262 259.299H158.886L153.87 254.085V259.299H151.956V243.899H153.87V253.161L158.622 248.299H161.086L155.828 253.623L161.262 259.299ZM163.374 254.679C163.565 255.662 164.012 256.425 164.716 256.967C165.435 257.51 166.315 257.781 167.356 257.781C168.808 257.781 169.864 257.246 170.524 256.175L172.152 257.099C171.081 258.757 169.468 259.585 167.312 259.585C165.567 259.585 164.144 259.043 163.044 257.957C161.959 256.857 161.416 255.471 161.416 253.799C161.416 252.142 161.951 250.763 163.022 249.663C164.093 248.563 165.479 248.013 167.18 248.013C168.793 248.013 170.106 248.585 171.118 249.729C172.145 250.859 172.658 252.223 172.658 253.821C172.658 254.1 172.636 254.386 172.592 254.679H163.374ZM167.18 249.817C166.153 249.817 165.303 250.111 164.628 250.697C163.953 251.269 163.535 252.039 163.374 253.007H170.722C170.561 251.966 170.15 251.174 169.49 250.631C168.83 250.089 168.06 249.817 167.18 249.817ZM180.52 250.147H177.594V256.109C177.594 256.652 177.697 257.041 177.902 257.275C178.122 257.495 178.452 257.613 178.892 257.627C179.332 257.627 179.875 257.613 180.52 257.583V259.299C178.848 259.519 177.623 259.387 176.846 258.903C176.069 258.405 175.68 257.473 175.68 256.109V250.147H173.502V248.299H175.68V245.791L177.594 245.219V248.299H180.52V250.147ZM188.922 248.013C190.462 248.013 191.775 248.578 192.86 249.707C193.946 250.822 194.488 252.186 194.488 253.799C194.488 255.413 193.946 256.784 192.86 257.913C191.775 259.028 190.462 259.585 188.922 259.585C187.104 259.585 185.718 258.859 184.764 257.407V263.699H182.85V248.299H184.764V250.191C185.718 248.739 187.104 248.013 188.922 248.013ZM188.68 257.737C189.78 257.737 190.704 257.363 191.452 256.615C192.2 255.853 192.574 254.914 192.574 253.799C192.574 252.685 192.2 251.753 191.452 251.005C190.704 250.243 189.78 249.861 188.68 249.861C187.566 249.861 186.634 250.243 185.886 251.005C185.138 251.753 184.764 252.685 184.764 253.799C184.764 254.914 185.138 255.853 185.886 256.615C186.634 257.363 187.566 257.737 188.68 257.737ZM196.772 259.299V243.239H198.686V259.299H196.772ZM210.714 248.299H212.628V259.299H210.714V257.407C209.761 258.859 208.375 259.585 206.556 259.585C205.016 259.585 203.704 259.028 202.618 257.913C201.533 256.784 200.99 255.413 200.99 253.799C200.99 252.186 201.533 250.822 202.618 249.707C203.704 248.578 205.016 248.013 206.556 248.013C208.375 248.013 209.761 248.739 210.714 250.191V248.299ZM206.798 257.737C207.913 257.737 208.844 257.363 209.592 256.615C210.34 255.853 210.714 254.914 210.714 253.799C210.714 252.685 210.34 251.753 209.592 251.005C208.844 250.243 207.913 249.861 206.798 249.861C205.698 249.861 204.774 250.243 204.026 251.005C203.278 251.753 202.904 252.685 202.904 253.799C202.904 254.914 203.278 255.853 204.026 256.615C204.774 257.363 205.698 257.737 206.798 257.737ZM220.698 259.585C219.041 259.585 217.662 259.035 216.562 257.935C215.462 256.821 214.912 255.442 214.912 253.799C214.912 252.157 215.462 250.785 216.562 249.685C217.662 248.571 219.041 248.013 220.698 248.013C221.783 248.013 222.759 248.277 223.624 248.805C224.489 249.319 225.135 250.015 225.56 250.895L223.954 251.819C223.675 251.233 223.243 250.763 222.656 250.411C222.084 250.059 221.431 249.883 220.698 249.883C219.598 249.883 218.674 250.257 217.926 251.005C217.193 251.753 216.826 252.685 216.826 253.799C216.826 254.899 217.193 255.823 217.926 256.571C218.674 257.319 219.598 257.693 220.698 257.693C221.431 257.693 222.091 257.525 222.678 257.187C223.265 256.835 223.712 256.366 224.02 255.779L225.648 256.725C225.179 257.591 224.504 258.287 223.624 258.815C222.744 259.329 221.769 259.585 220.698 259.585ZM228.73 254.679C228.92 255.662 229.368 256.425 230.072 256.967C230.79 257.51 231.67 257.781 232.712 257.781C234.164 257.781 235.22 257.246 235.88 256.175L237.508 257.099C236.437 258.757 234.824 259.585 232.668 259.585C230.922 259.585 229.5 259.043 228.4 257.957C227.314 256.857 226.772 255.471 226.772 253.799C226.772 252.142 227.307 250.763 228.378 249.663C229.448 248.563 230.834 248.013 232.536 248.013C234.149 248.013 235.462 248.585 236.474 249.729C237.5 250.859 238.014 252.223 238.014 253.821C238.014 254.1 237.992 254.386 237.948 254.679H228.73ZM232.536 249.817C231.509 249.817 230.658 250.111 229.984 250.697C229.309 251.269 228.891 252.039 228.73 253.007H236.078C235.916 251.966 235.506 251.174 234.846 250.631C234.186 250.089 233.416 249.817 232.536 249.817Z" fill="#BDF3FF"/>
<path d="M445.22 359.899V375.299H443.196V363.265L438.158 371.647H437.894L432.856 363.287V375.299H430.81V359.899H433.12L438.026 368.039L442.91 359.899H445.22ZM457.599 373.913C456.47 375.028 455.099 375.585 453.485 375.585C451.872 375.585 450.501 375.028 449.371 373.913C448.257 372.799 447.699 371.427 447.699 369.799C447.699 368.171 448.257 366.8 449.371 365.685C450.501 364.571 451.872 364.013 453.485 364.013C455.099 364.013 456.47 364.571 457.599 365.685C458.729 366.8 459.293 368.171 459.293 369.799C459.293 371.427 458.729 372.799 457.599 373.913ZM453.485 373.715C454.585 373.715 455.509 373.341 456.257 372.593C457.005 371.845 457.379 370.914 457.379 369.799C457.379 368.685 457.005 367.753 456.257 367.005C455.509 366.257 454.585 365.883 453.485 365.883C452.4 365.883 451.483 366.257 450.735 367.005C449.987 367.753 449.613 368.685 449.613 369.799C449.613 370.914 449.987 371.845 450.735 372.593C451.483 373.341 452.4 373.715 453.485 373.715ZM467.028 364.013C468.318 364.013 469.352 364.424 470.13 365.245C470.907 366.052 471.296 367.152 471.296 368.545V375.299H469.382V368.655C469.382 367.761 469.14 367.071 468.656 366.587C468.172 366.089 467.504 365.839 466.654 365.839C465.7 365.839 464.93 366.14 464.344 366.741C463.757 367.328 463.464 368.237 463.464 369.469V375.299H461.55V364.299H463.464V365.883C464.241 364.637 465.429 364.013 467.028 364.013ZM475.31 370.679C475.5 371.662 475.948 372.425 476.652 372.967C477.37 373.51 478.25 373.781 479.292 373.781C480.744 373.781 481.8 373.246 482.46 372.175L484.088 373.099C483.017 374.757 481.404 375.585 479.248 375.585C477.502 375.585 476.08 375.043 474.98 373.957C473.894 372.857 473.352 371.471 473.352 369.799C473.352 368.142 473.887 366.763 474.958 365.663C476.028 364.563 477.414 364.013 479.116 364.013C480.729 364.013 482.042 364.585 483.054 365.729C484.08 366.859 484.594 368.223 484.594 369.821C484.594 370.1 484.572 370.386 484.528 370.679H475.31ZM479.116 365.817C478.089 365.817 477.238 366.111 476.564 366.697C475.889 367.269 475.471 368.039 475.31 369.007H482.658C482.496 367.966 482.086 367.174 481.426 366.631C480.766 366.089 479.996 365.817 479.116 365.817ZM494.042 364.299H496.088L491.6 375.981C491.131 377.228 490.471 378.174 489.62 378.819C488.784 379.479 487.816 379.773 486.716 379.699V377.917C488.065 378.02 489.055 377.272 489.686 375.673L489.884 375.255L485.088 364.299H487.134L490.874 372.923L494.042 364.299ZM508.972 359.899C510.395 359.899 511.576 360.376 512.514 361.329C513.468 362.268 513.944 363.441 513.944 364.849C513.944 366.243 513.468 367.416 512.514 368.369C511.576 369.323 510.395 369.799 508.972 369.799H505.43V375.299H503.384V359.899H508.972ZM508.972 367.885C509.823 367.885 510.527 367.599 511.084 367.027C511.642 366.441 511.92 365.715 511.92 364.849C511.92 363.969 511.642 363.243 511.084 362.671C510.527 362.099 509.823 361.813 508.972 361.813H505.43V367.885H508.972ZM517.841 366.147C518.471 364.783 519.615 364.101 521.273 364.101V366.103C520.334 366.059 519.527 366.309 518.853 366.851C518.178 367.394 517.841 368.267 517.841 369.469V375.299H515.927V364.299H517.841V366.147ZM531.828 373.913C530.698 375.028 529.327 375.585 527.714 375.585C526.1 375.585 524.729 375.028 523.6 373.913C522.485 372.799 521.928 371.427 521.928 369.799C521.928 368.171 522.485 366.8 523.6 365.685C524.729 364.571 526.1 364.013 527.714 364.013C529.327 364.013 530.698 364.571 531.828 365.685C532.957 366.8 533.522 368.171 533.522 369.799C533.522 371.427 532.957 372.799 531.828 373.913ZM527.714 373.715C528.814 373.715 529.738 373.341 530.486 372.593C531.234 371.845 531.608 370.914 531.608 369.799C531.608 368.685 531.234 367.753 530.486 367.005C529.738 366.257 528.814 365.883 527.714 365.883C526.628 365.883 525.712 366.257 524.964 367.005C524.216 367.753 523.842 368.685 523.842 369.799C523.842 370.914 524.216 371.845 524.964 372.593C525.712 373.341 526.628 373.715 527.714 373.715ZM541.526 366.147H538.6V372.109C538.6 372.652 538.703 373.041 538.908 373.275C539.128 373.495 539.458 373.613 539.898 373.627C540.338 373.627 540.881 373.613 541.526 373.583V375.299C539.854 375.519 538.629 375.387 537.852 374.903C537.075 374.405 536.686 373.473 536.686 372.109V366.147H534.508V364.299H536.686V361.791L538.6 361.219V364.299H541.526V366.147ZM544.575 370.679C544.766 371.662 545.213 372.425 545.917 372.967C546.636 373.51 547.516 373.781 548.557 373.781C550.009 373.781 551.065 373.246 551.725 372.175L553.353 373.099C552.283 374.757 550.669 375.585 548.513 375.585C546.768 375.585 545.345 375.043 544.245 373.957C543.16 372.857 542.617 371.471 542.617 369.799C542.617 368.142 543.153 366.763 544.223 365.663C545.294 364.563 546.68 364.013 548.381 364.013C549.995 364.013 551.307 364.585 552.319 365.729C553.346 366.859 553.859 368.223 553.859 369.821C553.859 370.1 553.837 370.386 553.793 370.679H544.575ZM548.381 365.817C547.355 365.817 546.504 366.111 545.829 366.697C545.155 367.269 544.737 368.039 544.575 369.007H551.923C551.762 367.966 551.351 367.174 550.691 366.631C550.031 366.089 549.261 365.817 548.381 365.817ZM561.208 375.585C559.551 375.585 558.172 375.035 557.072 373.935C555.972 372.821 555.422 371.442 555.422 369.799C555.422 368.157 555.972 366.785 557.072 365.685C558.172 364.571 559.551 364.013 561.208 364.013C562.293 364.013 563.269 364.277 564.134 364.805C564.999 365.319 565.645 366.015 566.07 366.895L564.464 367.819C564.185 367.233 563.753 366.763 563.166 366.411C562.594 366.059 561.941 365.883 561.208 365.883C560.108 365.883 559.184 366.257 558.436 367.005C557.703 367.753 557.336 368.685 557.336 369.799C557.336 370.899 557.703 371.823 558.436 372.571C559.184 373.319 560.108 373.693 561.208 373.693C561.941 373.693 562.601 373.525 563.188 373.187C563.775 372.835 564.222 372.366 564.53 371.779L566.158 372.725C565.689 373.591 565.014 374.287 564.134 374.815C563.254 375.329 562.279 375.585 561.208 375.585ZM574.032 366.147H571.106V372.109C571.106 372.652 571.208 373.041 571.414 373.275C571.634 373.495 571.964 373.613 572.404 373.627C572.844 373.627 573.386 373.613 574.032 373.583V375.299C572.36 375.519 571.135 375.387 570.358 374.903C569.58 374.405 569.192 373.473 569.192 372.109V366.147H567.014V364.299H569.192V361.791L571.106 361.219V364.299H574.032V366.147ZM577.266 362.297C576.899 362.297 576.591 362.173 576.342 361.923C576.092 361.674 575.968 361.373 575.968 361.021C575.968 360.669 576.092 360.369 576.342 360.119C576.591 359.855 576.899 359.723 577.266 359.723C577.618 359.723 577.918 359.855 578.168 360.119C578.417 360.369 578.542 360.669 578.542 361.021C578.542 361.373 578.417 361.674 578.168 361.923C577.918 362.173 577.618 362.297 577.266 362.297ZM576.298 375.299V364.299H578.212V375.299H576.298ZM590.416 373.913C589.286 375.028 587.915 375.585 586.302 375.585C584.688 375.585 583.317 375.028 582.188 373.913C581.073 372.799 580.516 371.427 580.516 369.799C580.516 368.171 581.073 366.8 582.188 365.685C583.317 364.571 584.688 364.013 586.302 364.013C587.915 364.013 589.286 364.571 590.416 365.685C591.545 366.8 592.11 368.171 592.11 369.799C592.11 371.427 591.545 372.799 590.416 373.913ZM586.302 373.715C587.402 373.715 588.326 373.341 589.074 372.593C589.822 371.845 590.196 370.914 590.196 369.799C590.196 368.685 589.822 367.753 589.074 367.005C588.326 366.257 587.402 365.883 586.302 365.883C585.216 365.883 584.3 366.257 583.552 367.005C582.804 367.753 582.43 368.685 582.43 369.799C582.43 370.914 582.804 371.845 583.552 372.593C584.3 373.341 585.216 373.715 586.302 373.715ZM599.844 364.013C601.135 364.013 602.169 364.424 602.946 365.245C603.723 366.052 604.112 367.152 604.112 368.545V375.299H602.198V368.655C602.198 367.761 601.956 367.071 601.472 366.587C600.988 366.089 600.321 365.839 599.47 365.839C598.517 365.839 597.747 366.14 597.16 366.741C596.573 367.328 596.28 368.237 596.28 369.469V375.299H594.366V364.299H596.28V365.883C597.057 364.637 598.245 364.013 599.844 364.013Z" fill="#BDF3FF"/>
<path d="M215.816 500.599C217.913 500.599 219.651 501.347 221.03 502.843C222.423 504.324 223.12 506.143 223.12 508.299C223.12 510.455 222.423 512.281 221.03 513.777C219.651 515.258 217.913 515.999 215.816 515.999H209.81V500.599H215.816ZM215.816 514.063C217.385 514.063 218.669 513.513 219.666 512.413C220.663 511.313 221.162 509.942 221.162 508.299C221.162 506.656 220.663 505.285 219.666 504.185C218.669 503.085 217.385 502.535 215.816 502.535H211.856V514.063H215.816ZM234.511 504.999H236.425V515.999H234.511V514.107C233.558 515.559 232.172 516.285 230.353 516.285C228.813 516.285 227.501 515.728 226.415 514.613C225.33 513.484 224.787 512.112 224.787 510.499C224.787 508.886 225.33 507.522 226.415 506.407C227.501 505.278 228.813 504.713 230.353 504.713C232.172 504.713 233.558 505.439 234.511 506.891V504.999ZM230.595 514.437C231.71 514.437 232.641 514.063 233.389 513.315C234.137 512.552 234.511 511.614 234.511 510.499C234.511 509.384 234.137 508.453 233.389 507.705C232.641 506.942 231.71 506.561 230.595 506.561C229.495 506.561 228.571 506.942 227.823 507.705C227.075 508.453 226.701 509.384 226.701 510.499C226.701 511.614 227.075 512.552 227.823 513.315C228.571 514.063 229.495 514.437 230.595 514.437ZM245.309 506.847H242.383V512.809C242.383 513.352 242.486 513.74 242.691 513.975C242.911 514.195 243.241 514.312 243.681 514.327C244.121 514.327 244.664 514.312 245.309 514.283V515.999C243.637 516.219 242.412 516.087 241.635 515.603C240.858 515.104 240.469 514.173 240.469 512.809V506.847H238.291V504.999H240.469V502.491L242.383 501.919V504.999H245.309V506.847ZM256.124 504.999H258.038V515.999H256.124V514.107C255.171 515.559 253.785 516.285 251.966 516.285C250.426 516.285 249.114 515.728 248.028 514.613C246.943 513.484 246.4 512.112 246.4 510.499C246.4 508.886 246.943 507.522 248.028 506.407C249.114 505.278 250.426 504.713 251.966 504.713C253.785 504.713 255.171 505.439 256.124 506.891V504.999ZM252.208 514.437C253.323 514.437 254.254 514.063 255.002 513.315C255.75 512.552 256.124 511.614 256.124 510.499C256.124 509.384 255.75 508.453 255.002 507.705C254.254 506.942 253.323 506.561 252.208 506.561C251.108 506.561 250.184 506.942 249.436 507.705C248.688 508.453 248.314 509.384 248.314 510.499C248.314 511.614 248.688 512.552 249.436 513.315C250.184 514.063 251.108 514.437 252.208 514.437ZM272.224 500.599C273.647 500.599 274.828 501.076 275.766 502.029C276.72 502.968 277.196 504.141 277.196 505.549C277.196 506.942 276.72 508.116 275.766 509.069C274.828 510.022 273.647 510.499 272.224 510.499H268.682V515.999H266.636V500.599H272.224ZM272.224 508.585C273.075 508.585 273.779 508.299 274.336 507.727C274.894 507.14 275.172 506.414 275.172 505.549C275.172 504.669 274.894 503.943 274.336 503.371C273.779 502.799 273.075 502.513 272.224 502.513H268.682V508.585H272.224ZM281.093 506.847C281.723 505.483 282.867 504.801 284.525 504.801V506.803C283.586 506.759 282.779 507.008 282.105 507.551C281.43 508.094 281.093 508.966 281.093 510.169V515.999H279.179V504.999H281.093V506.847ZM295.08 514.613C293.95 515.728 292.579 516.285 290.966 516.285C289.352 516.285 287.981 515.728 286.852 514.613C285.737 513.498 285.18 512.127 285.18 510.499C285.18 508.871 285.737 507.5 286.852 506.385C287.981 505.27 289.352 504.713 290.966 504.713C292.579 504.713 293.95 505.27 295.08 506.385C296.209 507.5 296.774 508.871 296.774 510.499C296.774 512.127 296.209 513.498 295.08 514.613ZM290.966 514.415C292.066 514.415 292.99 514.041 293.738 513.293C294.486 512.545 294.86 511.614 294.86 510.499C294.86 509.384 294.486 508.453 293.738 507.705C292.99 506.957 292.066 506.583 290.966 506.583C289.88 506.583 288.964 506.957 288.216 507.705C287.468 508.453 287.094 509.384 287.094 510.499C287.094 511.614 287.468 512.545 288.216 513.293C288.964 514.041 289.88 514.415 290.966 514.415ZM304.778 506.847H301.852V512.809C301.852 513.352 301.954 513.74 302.16 513.975C302.38 514.195 302.71 514.312 303.15 514.327C303.59 514.327 304.132 514.312 304.778 514.283V515.999C303.106 516.219 301.881 516.087 301.104 515.603C300.326 515.104 299.938 514.173 299.938 512.809V506.847H297.76V504.999H299.938V502.491L301.852 501.919V504.999H304.778V506.847ZM307.827 511.379C308.018 512.362 308.465 513.124 309.169 513.667C309.888 514.21 310.768 514.481 311.809 514.481C313.261 514.481 314.317 513.946 314.977 512.875L316.605 513.799C315.535 515.456 313.921 516.285 311.765 516.285C310.02 516.285 308.597 515.742 307.497 514.657C306.412 513.557 305.869 512.171 305.869 510.499C305.869 508.842 306.405 507.463 307.475 506.363C308.546 505.263 309.932 504.713 311.633 504.713C313.247 504.713 314.559 505.285 315.571 506.429C316.598 507.558 317.111 508.922 317.111 510.521C317.111 510.8 317.089 511.086 317.045 511.379H307.827ZM311.633 506.517C310.607 506.517 309.756 506.81 309.081 507.397C308.407 507.969 307.989 508.739 307.827 509.707H315.175C315.014 508.666 314.603 507.874 313.943 507.331C313.283 506.788 312.513 506.517 311.633 506.517ZM324.46 516.285C322.803 516.285 321.424 515.735 320.324 514.635C319.224 513.52 318.674 512.142 318.674 510.499C318.674 508.856 319.224 507.485 320.324 506.385C321.424 505.27 322.803 504.713 324.46 504.713C325.545 504.713 326.521 504.977 327.386 505.505C328.251 506.018 328.897 506.715 329.322 507.595L327.716 508.519C327.437 507.932 327.005 507.463 326.418 507.111C325.846 506.759 325.193 506.583 324.46 506.583C323.36 506.583 322.436 506.957 321.688 507.705C320.955 508.453 320.588 509.384 320.588 510.499C320.588 511.599 320.955 512.523 321.688 513.271C322.436 514.019 323.36 514.393 324.46 514.393C325.193 514.393 325.853 514.224 326.44 513.887C327.027 513.535 327.474 513.066 327.782 512.479L329.41 513.425C328.941 514.29 328.266 514.987 327.386 515.515C326.506 516.028 325.531 516.285 324.46 516.285ZM337.284 506.847H334.358V512.809C334.358 513.352 334.46 513.74 334.666 513.975C334.886 514.195 335.216 514.312 335.656 514.327C336.096 514.327 336.638 514.312 337.284 514.283V515.999C335.612 516.219 334.387 516.087 333.61 515.603C332.832 515.104 332.444 514.173 332.444 512.809V506.847H330.266V504.999H332.444V502.491L334.358 501.919V504.999H337.284V506.847ZM340.518 502.997C340.151 502.997 339.843 502.872 339.594 502.623C339.344 502.374 339.22 502.073 339.22 501.721C339.22 501.369 339.344 501.068 339.594 500.819C339.843 500.555 340.151 500.423 340.518 500.423C340.87 500.423 341.17 500.555 341.42 500.819C341.669 501.068 341.794 501.369 341.794 501.721C341.794 502.073 341.669 502.374 341.42 502.623C341.17 502.872 340.87 502.997 340.518 502.997ZM339.55 515.999V504.999H341.464V515.999H339.55ZM353.668 514.613C352.538 515.728 351.167 516.285 349.554 516.285C347.94 516.285 346.569 515.728 345.44 514.613C344.325 513.498 343.768 512.127 343.768 510.499C343.768 508.871 344.325 507.5 345.44 506.385C346.569 505.27 347.94 504.713 349.554 504.713C351.167 504.713 352.538 505.27 353.668 506.385C354.797 507.5 355.362 508.871 355.362 510.499C355.362 512.127 354.797 513.498 353.668 514.613ZM349.554 514.415C350.654 514.415 351.578 514.041 352.326 513.293C353.074 512.545 353.448 511.614 353.448 510.499C353.448 509.384 353.074 508.453 352.326 507.705C351.578 506.957 350.654 506.583 349.554 506.583C348.468 506.583 347.552 506.957 346.804 507.705C346.056 508.453 345.682 509.384 345.682 510.499C345.682 511.614 346.056 512.545 346.804 513.293C347.552 514.041 348.468 514.415 349.554 514.415ZM363.096 504.713C364.387 504.713 365.421 505.124 366.198 505.945C366.975 506.752 367.364 507.852 367.364 509.245V515.999H365.45V509.355C365.45 508.46 365.208 507.771 364.724 507.287C364.24 506.788 363.573 506.539 362.722 506.539C361.769 506.539 360.999 506.84 360.412 507.441C359.825 508.028 359.532 508.937 359.532 510.169V515.999H357.618V504.999H359.532V506.583C360.309 505.336 361.497 504.713 363.096 504.713Z" fill="#BDF3FF"/>
<path d="M570.676 615.535H563.856V620.529H570.39V622.465H563.856V628.999H561.81V613.599H570.676V615.535ZM582.064 617.999H583.978V628.999H582.064V627.107C581.111 628.559 579.725 629.285 577.906 629.285C576.366 629.285 575.053 628.728 573.968 627.613C572.883 626.484 572.34 625.112 572.34 623.499C572.34 621.886 572.883 620.522 573.968 619.407C575.053 618.278 576.366 617.713 577.906 617.713C579.725 617.713 581.111 618.439 582.064 619.891V617.999ZM578.148 627.437C579.263 627.437 580.194 627.063 580.942 626.315C581.69 625.552 582.064 624.614 582.064 623.499C582.064 622.384 581.69 621.453 580.942 620.705C580.194 619.942 579.263 619.561 578.148 619.561C577.048 619.561 576.124 619.942 575.376 620.705C574.628 621.453 574.254 622.384 574.254 623.499C574.254 624.614 574.628 625.552 575.376 626.315C576.124 627.063 577.048 627.437 578.148 627.437ZM588.506 620.969C588.506 621.394 588.719 621.739 589.144 622.003C589.57 622.252 590.083 622.458 590.684 622.619C591.286 622.766 591.887 622.942 592.488 623.147C593.09 623.338 593.603 623.675 594.028 624.159C594.454 624.628 594.666 625.237 594.666 625.985C594.666 626.982 594.278 627.782 593.5 628.383C592.738 628.984 591.755 629.285 590.552 629.285C589.482 629.285 588.565 629.05 587.802 628.581C587.04 628.112 586.497 627.488 586.174 626.711L587.824 625.765C588 626.293 588.33 626.711 588.814 627.019C589.298 627.327 589.878 627.481 590.552 627.481C591.183 627.481 591.704 627.364 592.114 627.129C592.525 626.88 592.73 626.498 592.73 625.985C592.73 625.56 592.518 625.222 592.092 624.973C591.667 624.709 591.154 624.504 590.552 624.357C589.951 624.196 589.35 624.012 588.748 623.807C588.147 623.602 587.634 623.264 587.208 622.795C586.783 622.326 586.57 621.724 586.57 620.991C586.57 620.038 586.937 619.253 587.67 618.637C588.418 618.021 589.35 617.713 590.464 617.713C591.359 617.713 592.151 617.918 592.84 618.329C593.544 618.725 594.072 619.282 594.424 620.001L592.818 620.903C592.422 619.964 591.638 619.495 590.464 619.495C589.922 619.495 589.46 619.627 589.078 619.891C588.697 620.14 588.506 620.5 588.506 620.969ZM602.487 619.847H599.561V625.809C599.561 626.352 599.663 626.74 599.869 626.975C600.089 627.195 600.419 627.312 600.859 627.327C601.299 627.327 601.841 627.312 602.487 627.283V628.999C600.815 629.219 599.59 629.087 598.813 628.603C598.035 628.104 597.647 627.173 597.647 625.809V619.847H595.469V617.999H597.647V615.491L599.561 614.919V617.999H602.487V619.847ZM622.923 628.361L621.207 629.351L619.645 627.679C618.501 628.75 617.035 629.285 615.245 629.285C613.705 629.285 612.459 628.889 611.505 628.097C610.552 627.29 610.075 626.205 610.075 624.841C610.075 623.902 610.31 623.044 610.779 622.267C611.263 621.475 611.967 620.852 612.891 620.397C612.231 619.561 611.901 618.63 611.901 617.603C611.901 616.327 612.341 615.293 613.221 614.501C614.116 613.709 615.187 613.313 616.433 613.313C617.46 613.313 618.391 613.592 619.227 614.149C620.063 614.706 620.665 615.476 621.031 616.459L619.315 617.449C619.095 616.774 618.729 616.246 618.215 615.865C617.717 615.484 617.137 615.293 616.477 615.293C615.773 615.293 615.172 615.506 614.673 615.931C614.189 616.356 613.947 616.906 613.947 617.581C613.947 618.065 614.057 618.505 614.277 618.901C614.512 619.282 614.857 619.715 615.311 620.199L619.513 624.687C619.88 623.924 620.144 622.993 620.305 621.893L622.065 622.905C621.86 624.122 621.464 625.215 620.877 626.183L622.923 628.361ZM615.289 627.349C616.507 627.349 617.519 626.99 618.325 626.271L614.167 621.805C613.463 622.098 612.943 622.509 612.605 623.037C612.283 623.565 612.121 624.122 612.121 624.709C612.121 625.53 612.4 626.176 612.957 626.645C613.515 627.114 614.292 627.349 615.289 627.349ZM635.554 629.285C634.116 629.285 632.884 628.948 631.858 628.273C630.846 627.598 630.134 626.674 629.724 625.501L631.484 624.489C632.085 626.352 633.456 627.283 635.598 627.283C636.654 627.283 637.46 627.07 638.018 626.645C638.575 626.205 638.854 625.626 638.854 624.907C638.854 624.174 638.575 623.624 638.018 623.257C637.46 622.89 636.529 622.502 635.224 622.091C634.578 621.886 634.087 621.724 633.75 621.607C633.412 621.475 632.987 621.284 632.474 621.035C631.975 620.771 631.601 620.507 631.352 620.243C631.102 619.964 630.875 619.605 630.67 619.165C630.479 618.725 630.384 618.226 630.384 617.669C630.384 616.334 630.853 615.278 631.792 614.501C632.73 613.709 633.874 613.313 635.224 613.313C636.441 613.313 637.497 613.621 638.392 614.237C639.301 614.853 639.983 615.667 640.438 616.679L638.722 617.669C638.062 616.085 636.896 615.293 635.224 615.293C634.388 615.293 633.713 615.498 633.2 615.909C632.686 616.32 632.43 616.877 632.43 617.581C632.43 618.256 632.672 618.769 633.156 619.121C633.64 619.473 634.476 619.84 635.664 620.221C636.089 620.353 636.39 620.448 636.566 620.507C636.742 620.566 637.013 620.668 637.38 620.815C637.761 620.962 638.04 621.079 638.216 621.167C638.392 621.255 638.626 621.38 638.92 621.541C639.228 621.702 639.455 621.856 639.602 622.003C639.748 622.15 639.917 622.333 640.108 622.553C640.313 622.758 640.46 622.971 640.548 623.191C640.636 623.411 640.709 623.668 640.768 623.961C640.841 624.24 640.878 624.54 640.878 624.863C640.878 626.212 640.386 627.29 639.404 628.097C638.421 628.889 637.138 629.285 635.554 629.285ZM644.702 624.379C644.893 625.362 645.34 626.124 646.044 626.667C646.763 627.21 647.643 627.481 648.684 627.481C650.136 627.481 651.192 626.946 651.852 625.875L653.48 626.799C652.41 628.456 650.796 629.285 648.64 629.285C646.895 629.285 645.472 628.742 644.372 627.657C643.287 626.557 642.744 625.171 642.744 623.499C642.744 621.842 643.28 620.463 644.35 619.363C645.421 618.263 646.807 617.713 648.508 617.713C650.122 617.713 651.434 618.285 652.446 619.429C653.473 620.558 653.986 621.922 653.986 623.521C653.986 623.8 653.964 624.086 653.92 624.379H644.702ZM648.508 619.517C647.482 619.517 646.631 619.81 645.956 620.397C645.282 620.969 644.864 621.739 644.702 622.707H652.05C651.889 621.666 651.478 620.874 650.818 620.331C650.158 619.788 649.388 619.517 648.508 619.517ZM661.335 629.285C659.678 629.285 658.299 628.735 657.199 627.635C656.099 626.52 655.549 625.142 655.549 623.499C655.549 621.856 656.099 620.485 657.199 619.385C658.299 618.27 659.678 617.713 661.335 617.713C662.42 617.713 663.396 617.977 664.261 618.505C665.126 619.018 665.772 619.715 666.197 620.595L664.591 621.519C664.312 620.932 663.88 620.463 663.293 620.111C662.721 619.759 662.068 619.583 661.335 619.583C660.235 619.583 659.311 619.957 658.563 620.705C657.83 621.453 657.463 622.384 657.463 623.499C657.463 624.599 657.83 625.523 658.563 626.271C659.311 627.019 660.235 627.393 661.335 627.393C662.068 627.393 662.728 627.224 663.315 626.887C663.902 626.535 664.349 626.066 664.657 625.479L666.285 626.425C665.816 627.29 665.141 627.987 664.261 628.515C663.381 629.028 662.406 629.285 661.335 629.285ZM675.786 617.999H677.7V628.999H675.786V627.415C675.009 628.662 673.821 629.285 672.222 629.285C670.931 629.285 669.897 628.882 669.12 628.075C668.343 627.254 667.954 626.146 667.954 624.753V617.999H669.868V624.643C669.868 625.538 670.11 626.234 670.594 626.733C671.078 627.217 671.745 627.459 672.596 627.459C673.549 627.459 674.319 627.166 674.906 626.579C675.493 625.978 675.786 625.061 675.786 623.829V617.999ZM682.528 619.847C683.159 618.483 684.303 617.801 685.96 617.801V619.803C685.021 619.759 684.215 620.008 683.54 620.551C682.865 621.094 682.528 621.966 682.528 623.169V628.999H680.614V617.999H682.528V619.847ZM688.573 624.379C688.764 625.362 689.211 626.124 689.915 626.667C690.634 627.21 691.514 627.481 692.555 627.481C694.007 627.481 695.063 626.946 695.723 625.875L697.351 626.799C696.281 628.456 694.667 629.285 692.511 629.285C690.766 629.285 689.343 628.742 688.243 627.657C687.158 626.557 686.615 625.171 686.615 623.499C686.615 621.842 687.151 620.463 688.221 619.363C689.292 618.263 690.678 617.713 692.379 617.713C693.993 617.713 695.305 618.285 696.317 619.429C697.344 620.558 697.857 621.922 697.857 623.521C697.857 623.8 697.835 624.086 697.791 624.379H688.573ZM692.379 619.517C691.353 619.517 690.502 619.81 689.827 620.397C689.153 620.969 688.735 621.739 688.573 622.707H695.921C695.76 621.666 695.349 620.874 694.689 620.331C694.029 619.788 693.259 619.517 692.379 619.517Z" fill="#BDF3FF"/>
<g clip-path="url(#clip4_1_355)">
<path d="M189.48 132.385V212.385L209.927 196.098V143.498L189.48 132.385ZM179.97 194.912L163.507 202.102V139.338L179.97 144.212V194.912ZM141.397 193.068L153.997 189.738V149.678L141.457 147.658L141.397 193.068Z" fill="url(#paint8_linear_1_355)"/>
</g>
<g clip-path="url(#clip5_1_355)">
<path d="M314.52 461.999H262.798C260.419 461.999 258.387 461.162 256.704 459.488C255.02 457.814 254.178 455.794 254.178 453.428V419.142C254.178 417.981 254.593 416.977 255.424 416.128C256.255 415.28 257.276 414.856 258.488 414.856H290.814C290.814 414.544 291.072 413.919 291.589 412.981C292.105 412.044 292.61 411.173 293.104 410.37L293.912 409.231C294.226 408.383 294.855 407.68 295.798 407.122C296.741 406.564 297.728 406.285 298.761 406.285H314.924C316.002 406.285 317.012 406.564 317.955 407.122C318.898 407.68 319.526 408.383 319.84 409.231C322.04 412.088 323.14 413.963 323.14 414.856V453.428C323.14 455.794 322.298 457.814 320.615 459.488C318.931 461.162 316.9 461.999 314.52 461.999ZM297.279 431.999C297.279 429.633 296.438 427.613 294.754 425.939C293.07 424.265 291.039 423.428 288.659 423.428C286.28 423.428 284.248 424.265 282.564 425.939C280.881 427.613 280.039 429.633 280.039 431.999C280.039 433.74 280.544 435.336 281.554 436.787C282.564 438.238 283.878 439.276 285.494 439.901L280.039 453.428H297.279L291.824 439.901C293.441 439.276 294.754 438.238 295.764 436.787C296.774 435.336 297.279 433.74 297.279 431.999ZM257.276 404.945C257.59 404.097 258.219 403.394 259.162 402.836C260.105 402.278 261.092 401.999 262.125 401.999H278.288C279.366 401.999 280.376 402.278 281.319 402.836C282.261 403.394 282.912 404.097 283.272 404.945L286.504 410.57H254.178L257.276 404.945Z" fill="url(#paint9_linear_1_355)"/>
</g>
<path d="M514.327 259.966L538.653 267.566C539.332 267.778 539.925 268.201 540.346 268.774C540.767 269.346 540.994 270.039 540.993 270.749V276.633H547.66C548.544 276.633 549.392 276.984 550.017 277.609C550.642 278.234 550.993 279.082 550.993 279.966V286.633H507.66V279.966C507.66 279.082 508.011 278.234 508.636 277.609C509.262 276.984 510.109 276.633 510.993 276.633H534.327V273.199L514.327 266.946L494.327 273.199V297.879C494.326 299.92 494.794 301.934 495.695 303.765C496.595 305.597 497.904 307.197 499.52 308.443L500.15 308.896L514.327 318.566L526.933 309.966H510.993C510.109 309.966 509.262 309.615 508.636 308.99C508.011 308.365 507.66 307.517 507.66 306.633V293.299H550.993V306.633C550.993 307.517 550.642 308.365 550.017 308.99C549.392 309.615 548.544 309.966 547.66 309.966L536.927 309.969C535.637 311.669 534.07 313.169 532.26 314.403L514.327 326.633L496.393 314.406C493.702 312.571 491.499 310.106 489.977 307.226C488.455 304.346 487.66 301.137 487.66 297.879V270.749C487.661 270.039 487.888 269.348 488.309 268.776C488.73 268.204 489.322 267.781 490 267.569L514.327 259.966Z" fill="url(#paint10_linear_1_355)"/>
<g clip-path="url(#clip6_1_355)">
<path d="M618.66 530.999H634.66V528.332C634.66 526.211 633.817 524.176 632.317 522.675C630.817 521.175 628.782 520.332 626.66 520.332C624.538 520.332 622.504 521.175 621.003 522.675C619.503 524.176 618.66 526.211 618.66 528.332V530.999Z" fill="url(#paint11_linear_1_355)"/>
<path d="M614.66 541.666H638.66V538.999H614.66V541.666Z" fill="url(#paint12_linear_1_355)"/>
<path d="M638.66 548.332H614.66V545.666H638.66V548.332Z" fill="url(#paint13_linear_1_355)"/>
<path d="M614.66 554.999H638.66V552.332H614.66V554.999Z" fill="url(#paint14_linear_1_355)"/>
<path fill-rule="evenodd" clip-rule="evenodd" d="M594.66 506.999H658.66V570.999H594.66V506.999ZM609.327 530.999C608.62 530.999 607.941 531.28 607.441 531.78C606.941 532.28 606.66 532.958 606.66 533.666V560.332C606.66 561.04 606.941 561.718 607.441 562.218C607.941 562.718 608.62 562.999 609.327 562.999H643.993C644.701 562.999 645.379 562.718 645.879 562.218C646.379 561.718 646.66 561.04 646.66 560.332V533.666C646.66 532.958 646.379 532.28 645.879 531.78C645.379 531.28 644.701 530.999 643.993 530.999H639.993V528.332C639.993 520.968 634.024 514.999 626.66 514.999C619.296 514.999 613.327 520.968 613.327 528.332V530.999H609.327Z" fill="url(#paint15_linear_1_355)"/>
</g>
<defs>
<filter id="filter0_f_1_355" x="-9.83987" y="-0.000976562" width="260" height="237" filterUnits="userSpaceOnUse" color-interpolation-filters="sRGB">
<feFlood flood-opacity="0" result="BackgroundImageFix"/>
<feBlend mode="normal" in="SourceGraphic" in2="BackgroundImageFix" result="shape"/>
<feGaussianBlur stdDeviation="30" result="effect1_foregroundBlur_1_355"/>
</filter>
<filter id="filter1_b_1_355" x="-32.8399" y="31.999" width="417" height="329" filterUnits="userSpaceOnUse" color-interpolation-filters="sRGB">
<feFlood flood-opacity="0" result="BackgroundImageFix"/>
<feGaussianBlur in="BackgroundImage" stdDeviation="25"/>
<feComposite in2="SourceAlpha" operator="in" result="effect1_backgroundBlur_1_355"/>
<feBlend mode="normal" in="SourceGraphic" in2="effect1_backgroundBlur_1_355" result="shape"/>
</filter>
<filter id="filter2_f_1_355" x="442.66" y="124.299" width="250" height="237" filterUnits="userSpaceOnUse" color-interpolation-filters="sRGB">
<feFlood flood-opacity="0" result="BackgroundImageFix"/>
<feBlend mode="normal" in="SourceGraphic" in2="BackgroundImageFix" result="shape"/>
<feGaussianBlur stdDeviation="30" result="effect1_foregroundBlur_1_355"/>
</filter>
<filter id="filter3_f_1_355" x="122.16" y="274.999" width="231" height="217" filterUnits="userSpaceOnUse" color-interpolation-filters="sRGB">
<feFlood flood-opacity="0" result="BackgroundImageFix"/>
<feBlend mode="normal" in="SourceGraphic" in2="BackgroundImageFix" result="shape"/>
<feGaussianBlur stdDeviation="30" result="effect1_foregroundBlur_1_355"/>
</filter>
<filter id="filter4_f_1_355" x="571.66" y="389.999" width="217" height="217" filterUnits="userSpaceOnUse" color-interpolation-filters="sRGB">
<feFlood flood-opacity="0" result="BackgroundImageFix"/>
<feBlend mode="normal" in="SourceGraphic" in2="BackgroundImageFix" result="shape"/>
<feGaussianBlur stdDeviation="30" result="effect1_foregroundBlur_1_355"/>
</filter>
<filter id="filter5_b_1_355" x="80.1601" y="287.999" width="417" height="329" filterUnits="userSpaceOnUse" color-interpolation-filters="sRGB">
<feFlood flood-opacity="0" result="BackgroundImageFix"/>
<feGaussianBlur in="BackgroundImage" stdDeviation="25"/>
<feComposite in2="SourceAlpha" operator="in" result="effect1_backgroundBlur_1_355"/>
<feBlend mode="normal" in="SourceGraphic" in2="effect1_backgroundBlur_1_355" result="shape"/>
</filter>
<filter id="filter6_b_1_355" x="308.66" y="147.299" width="418" height="329" filterUnits="userSpaceOnUse" color-interpolation-filters="sRGB">
<feFlood flood-opacity="0" result="BackgroundImageFix"/>
<feGaussianBlur in="BackgroundImage" stdDeviation="25"/>
<feComposite in2="SourceAlpha" operator="in" result="effect1_backgroundBlur_1_355"/>
<feBlend mode="normal" in="SourceGraphic" in2="effect1_backgroundBlur_1_355" result="shape"/>
</filter>
<filter id="filter7_b_1_355" x="420.66" y="400.999" width="418" height="329" filterUnits="userSpaceOnUse" color-interpolation-filters="sRGB">
<feFlood flood-opacity="0" result="BackgroundImageFix"/>
<feGaussianBlur in="BackgroundImage" stdDeviation="25"/>
<feComposite in2="SourceAlpha" operator="in" result="effect1_backgroundBlur_1_355"/>
<feBlend mode="normal" in="SourceGraphic" in2="effect1_backgroundBlur_1_355" result="shape"/>
</filter>
<linearGradient id="paint0_linear_1_355" x1="175.66" y1="12.6455" x2="175.66" y2="413.86" gradientUnits="userSpaceOnUse">
<stop stop-color="white" stop-opacity="0.03"/>
<stop offset="1" stop-color="white" stop-opacity="0"/>
</linearGradient>
<linearGradient id="paint1_linear_1_355" x1="368.082" y1="310.999" x2="41.1816" y2="-3.3252" gradientUnits="userSpaceOnUse">
<stop stop-color="#F5FBF2" stop-opacity="0.44"/>
<stop offset="1" stop-color="#F5FBF2" stop-opacity="0"/>
</linearGradient>
<linearGradient id="paint2_linear_1_355" x1="288.66" y1="268.645" x2="288.66" y2="669.86" gradientUnits="userSpaceOnUse">
<stop stop-color="white" stop-opacity="0.03"/>
<stop offset="1" stop-color="white" stop-opacity="0"/>
</linearGradient>
<linearGradient id="paint3_linear_1_355" x1="481.082" y1="566.999" x2="154.182" y2="252.675" gradientUnits="userSpaceOnUse">
<stop stop-color="#F5FBF2" stop-opacity="0.44"/>
<stop offset="1" stop-color="#F5FBF2" stop-opacity="0"/>
</linearGradient>
<linearGradient id="paint4_linear_1_355" x1="517.66" y1="127.946" x2="517.66" y2="529.16" gradientUnits="userSpaceOnUse">
<stop stop-color="white" stop-opacity="0.03"/>
<stop offset="1" stop-color="white" stop-opacity="0"/>
</linearGradient>
<linearGradient id="paint5_linear_1_355" x1="710.689" y1="426.299" x2="383.75" y2="110.946" gradientUnits="userSpaceOnUse">
<stop stop-color="#F5FBF2" stop-opacity="0.44"/>
<stop offset="1" stop-color="#F5FBF2" stop-opacity="0"/>
</linearGradient>
<linearGradient id="paint6_linear_1_355" x1="629.66" y1="381.645" x2="629.66" y2="782.86" gradientUnits="userSpaceOnUse">
<stop stop-color="white" stop-opacity="0.03"/>
<stop offset="1" stop-color="white" stop-opacity="0"/>
</linearGradient>
<linearGradient id="paint7_linear_1_355" x1="822.689" y1="679.999" x2="495.75" y2="364.646" gradientUnits="userSpaceOnUse">
<stop stop-color="#F5FBF2" stop-opacity="0.44"/>
<stop offset="1" stop-color="#F5FBF2" stop-opacity="0"/>
</linearGradient>
<linearGradient id="paint8_linear_1_355" x1="175.662" y1="132.385" x2="269.063" y2="155.029" gradientUnits="userSpaceOnUse">
<stop stop-color="#F7BC51"/>
<stop offset="0.609375" stop-color="#60E7CE" stop-opacity="0.5"/>
<stop offset="1" stop-color="#060ED0" stop-opacity="0.28"/>
</linearGradient>
<linearGradient id="paint9_linear_1_355" x1="288.659" y1="401.999" x2="378.651" y2="431.273" gradientUnits="userSpaceOnUse">
<stop stop-color="#05D2FF"/>
<stop offset="0.609375" stop-color="#253FE0" stop-opacity="0.619792"/>
<stop offset="1" stop-color="#060ED0" stop-opacity="0.28"/>
</linearGradient>
<linearGradient id="paint10_linear_1_355" x1="519.327" y1="259.966" x2="604.557" y2="282.882" gradientUnits="userSpaceOnUse">
<stop stop-color="#FD5A14"/>
<stop offset="0.609375" stop-color="#FFF06B" stop-opacity="0.59"/>
<stop offset="1" stop-color="#060ED0" stop-opacity="0.28"/>
</linearGradient>
<linearGradient id="paint11_linear_1_355" x1="626.66" y1="520.332" x2="646.223" y2="528.637" gradientUnits="userSpaceOnUse">
<stop stop-color="#00DD9C"/>
<stop offset="0.609375" stop-color="#253FE0" stop-opacity="0.619792"/>
<stop offset="1" stop-color="#060ED0" stop-opacity="0.28"/>
</linearGradient>
<linearGradient id="paint12_linear_1_355" x1="626.66" y1="538.999" x2="631.285" y2="550.78" gradientUnits="userSpaceOnUse">
<stop stop-color="#00DD9C"/>
<stop offset="0.609375" stop-color="#253FE0" stop-opacity="0.619792"/>
<stop offset="1" stop-color="#060ED0" stop-opacity="0.28"/>
</linearGradient>
<linearGradient id="paint13_linear_1_355" x1="626.66" y1="545.666" x2="631.285" y2="557.446" gradientUnits="userSpaceOnUse">
<stop stop-color="#00DD9C"/>
<stop offset="0.609375" stop-color="#253FE0" stop-opacity="0.619792"/>
<stop offset="1" stop-color="#060ED0" stop-opacity="0.28"/>
</linearGradient>
<linearGradient id="paint14_linear_1_355" x1="626.66" y1="552.332" x2="631.285" y2="564.113" gradientUnits="userSpaceOnUse">
<stop stop-color="#00DD9C"/>
<stop offset="0.609375" stop-color="#253FE0" stop-opacity="0.619792"/>
<stop offset="1" stop-color="#060ED0" stop-opacity="0.28"/>
</linearGradient>
<linearGradient id="paint15_linear_1_355" x1="626.66" y1="506.999" x2="712.165" y2="531.199" gradientUnits="userSpaceOnUse">
<stop stop-color="#00DD9C"/>
<stop offset="0.609375" stop-color="#253FE0" stop-opacity="0.619792"/>
<stop offset="1" stop-color="#060ED0" stop-opacity="0.28"/>
</linearGradient>
<clipPath id="clip0_1_355">
<rect width="140" height="117" fill="white" transform="translate(50.1601 59.999)"/>
</clipPath>
<clipPath id="clip1_1_355">
<rect width="130" height="117" fill="white" transform="translate(502.66 184.299)"/>
</clipPath>
<clipPath id="clip2_1_355">
<rect width="111" height="97" fill="white" transform="translate(182.16 334.999)"/>
</clipPath>
<clipPath id="clip3_1_355">
<rect width="97" height="97" fill="white" transform="translate(631.66 449.999)"/>
</clipPath>
<clipPath id="clip4_1_355">
<rect width="80" height="80" fill="white" transform="translate(135.66 132.385)"/>
</clipPath>
<clipPath id="clip5_1_355">
<rect width="69.0411" height="60" fill="white" transform="translate(254.139 401.999)"/>
</clipPath>
<clipPath id="clip6_1_355">
<rect width="64" height="64" fill="white" transform="translate(594.66 506.999)"/>
</clipPath>
</defs>
</svg>
