<svg width="344" height="276" viewBox="0 0 344 276" fill="none" xmlns="http://www.w3.org/2000/svg">
<g id="Group 55">
<g id="simple-icons:marketo" clip-path="url(#clip0_1_162)" filter="url(#filter0_f_1_162)">
<path id="Vector" d="M56.5502 0V52.0168L72.4679 41.4271V7.22601L56.5502 0ZM49.1467 40.6555L36.3299 45.3305V4.52113L49.1467 7.68982V40.6555ZM19.1173 39.4569L28.9264 37.2917V11.2443L19.164 9.93088L19.1173 39.4569Z" fill="#FFB413"/>
</g>
<g id="Rectangle 30" filter="url(#filter1_b_1_162)">
<rect y="9.78088" width="140.935" height="101.811" rx="15" fill="url(#paint0_linear_1_162)"/>
<rect x="0.5" y="10.2809" width="139.935" height="100.811" rx="14.5" stroke="url(#paint1_linear_1_162)"/>
</g>
<g id="simple-icons:marketo_2" clip-path="url(#clip1_1_162)" filter="url(#filter2_f_1_162)">
<path id="Vector_2" d="M254.474 55.2625V107.279L269.198 96.6895V62.4885L254.474 55.2625ZM247.626 95.918L235.771 100.593V59.7836L247.626 62.9523V95.918ZM219.849 94.7194L228.922 92.5542V66.5068L219.892 65.1933L219.849 94.7194Z" fill="#FF5A13"/>
</g>
<g id="simple-icons:marketo_3" clip-path="url(#clip2_1_162)" filter="url(#filter3_f_1_162)">
<path id="Vector_3" d="M106.548 122.262V165.387L119.15 156.607V128.253L106.548 122.262ZM100.687 155.968L90.5406 159.844V126.01L100.687 128.637V155.968ZM76.9139 154.974L84.6795 153.179V131.584L76.9509 130.495L76.9139 154.974Z" fill="#2FB8EB"/>
</g>
<g id="simple-icons:marketo_4" clip-path="url(#clip3_1_162)" filter="url(#filter4_f_1_162)">
<path id="Vector_4" d="M302.203 173.389V216.514L313.213 207.735V179.38L302.203 173.389ZM297.082 207.095L288.217 210.971V177.138L297.082 179.765V207.095ZM276.312 206.102L283.096 204.306V182.712L276.344 181.623L276.312 206.102Z" fill="#00E3A5"/>
</g>
<g id="Rectangle 28" filter="url(#filter5_b_1_162)">
<rect x="50" y="123.596" width="140.935" height="101.811" rx="15" fill="url(#paint2_linear_1_162)"/>
<rect x="50.5" y="124.096" width="139.935" height="100.811" rx="14.5" stroke="url(#paint3_linear_1_162)"/>
</g>
<g id="Rectangle 31" filter="url(#filter6_b_1_162)">
<rect x="152" y="61.0421" width="141.379" height="101.811" rx="15" fill="url(#paint4_linear_1_162)"/>
<rect x="152.5" y="61.5421" width="140.379" height="100.811" rx="14.5" stroke="url(#paint5_linear_1_162)"/>
</g>
<g id="Rectangle 29" filter="url(#filter7_b_1_162)">
<rect x="202" y="173.834" width="141.379" height="101.811" rx="15" fill="url(#paint6_linear_1_162)"/>
<rect x="202.5" y="174.334" width="140.379" height="100.811" rx="14.5" stroke="url(#paint7_linear_1_162)"/>
</g>
<path id="Marketplace" d="M40.22 78.2H38.75L35.642 83.38L32.52 78.2H31.05V88H32.352V80.356L35.558 85.676H35.726L38.932 80.342V88H40.22V78.2ZM47.9856 81V82.204C47.4256 81.35 46.5296 80.818 45.3396 80.818C43.3936 80.818 41.7976 82.428 41.7976 84.5C41.7976 86.572 43.3936 88.182 45.3396 88.182C46.5296 88.182 47.4256 87.65 47.9856 86.796V88H49.2036V81H47.9856ZM45.4936 87.006C44.0936 87.006 43.0156 85.928 43.0156 84.5C43.0156 83.072 44.0936 81.994 45.4936 81.994C46.9076 81.994 47.9856 83.072 47.9856 84.5C47.9856 85.928 46.9076 87.006 45.4936 87.006ZM52.267 82.176V81H51.049V88H52.267V84.29C52.267 82.638 53.401 82.106 54.451 82.148V80.874C53.569 80.874 52.715 81.196 52.267 82.176ZM61.5648 88L58.1068 84.388L61.4528 81H59.8848L56.8608 84.094V78.2H55.6427V88H56.8608V84.682L60.0528 88H61.5648ZM62.9089 85.06H68.7749C68.8029 84.878 68.8169 84.696 68.8169 84.514C68.8169 82.554 67.4449 80.818 65.3309 80.818C63.1469 80.818 61.6629 82.428 61.6629 84.5C61.6629 86.6 63.1609 88.182 65.4149 88.182C66.8149 88.182 67.8789 87.552 68.4949 86.6L67.4589 86.012C67.1089 86.586 66.4089 87.034 65.4429 87.034C64.1409 87.034 63.1469 86.32 62.9089 85.06ZM65.3309 81.966C66.3809 81.966 67.3749 82.61 67.5849 83.996H62.9089C63.1049 82.778 64.0149 81.966 65.3309 81.966ZM73.8199 82.176V81H71.9579V79.04L70.7399 79.404V81H69.3539V82.176H70.7399V85.97C70.7399 87.72 71.7199 88.28 73.8199 88V86.908C72.5739 86.964 71.9579 87.034 71.9579 85.97V82.176H73.8199ZM79.1669 80.818C77.9769 80.818 77.0809 81.35 76.5209 82.204V81H75.3029V90.8H76.5209V86.796C77.0809 87.65 77.9769 88.182 79.1669 88.182C81.1129 88.182 82.7089 86.572 82.7089 84.5C82.7089 82.428 81.1129 80.818 79.1669 80.818ZM79.0129 87.006C77.5989 87.006 76.5209 85.928 76.5209 84.5C76.5209 83.072 77.5989 81.994 79.0129 81.994C80.4129 81.994 81.4909 83.072 81.4909 84.5C81.4909 85.928 80.4129 87.006 79.0129 87.006ZM84.1623 88H85.3803V77.78H84.1623V88ZM93.0345 81V82.204C92.4745 81.35 91.5785 80.818 90.3885 80.818C88.4425 80.818 86.8465 82.428 86.8465 84.5C86.8465 86.572 88.4425 88.182 90.3885 88.182C91.5785 88.182 92.4745 87.65 93.0345 86.796V88H94.2525V81H93.0345ZM90.5425 87.006C89.1425 87.006 88.0645 85.928 88.0645 84.5C88.0645 83.072 89.1425 81.994 90.5425 81.994C91.9565 81.994 93.0345 83.072 93.0345 84.5C93.0345 85.928 91.9565 87.006 90.5425 87.006ZM99.3878 88.182C100.76 88.182 101.95 87.454 102.538 86.362L101.502 85.76C101.11 86.488 100.34 86.978 99.3878 86.978C97.9878 86.978 96.9238 85.9 96.9238 84.5C96.9238 83.086 97.9878 82.008 99.3878 82.008C100.326 82.008 101.11 82.498 101.46 83.24L102.482 82.652C101.95 81.546 100.774 80.818 99.3878 80.818C97.2738 80.818 95.7058 82.428 95.7058 84.5C95.7058 86.572 97.2738 88.182 99.3878 88.182ZM104.499 85.06H110.365C110.393 84.878 110.407 84.696 110.407 84.514C110.407 82.554 109.035 80.818 106.921 80.818C104.737 80.818 103.253 82.428 103.253 84.5C103.253 86.6 104.751 88.182 107.005 88.182C108.405 88.182 109.469 87.552 110.085 86.6L109.049 86.012C108.699 86.586 107.999 87.034 107.033 87.034C105.731 87.034 104.737 86.32 104.499 85.06ZM106.921 81.966C107.971 81.966 108.965 82.61 109.175 83.996H104.499C104.695 82.778 105.605 81.966 106.921 81.966Z" fill="#BDF3FF"/>
<path id="Money Protection" d="M176.22 129.2H174.75L171.642 134.38L168.52 129.2H167.05V139H168.352V131.356L171.558 136.676H171.726L174.932 131.342V139H176.22V129.2ZM181.48 139.182C183.524 139.182 185.176 137.572 185.176 135.5C185.176 133.428 183.524 131.818 181.48 131.818C179.436 131.818 177.798 133.428 177.798 135.5C177.798 137.572 179.436 139.182 181.48 139.182ZM181.48 137.992C180.094 137.992 179.016 136.914 179.016 135.5C179.016 134.086 180.094 133.008 181.48 133.008C182.88 133.008 183.958 134.086 183.958 135.5C183.958 136.914 182.88 137.992 181.48 137.992ZM190.098 131.818C189.118 131.818 188.348 132.182 187.83 133.008V132H186.611V139H187.83V135.29C187.83 133.638 188.74 132.98 189.86 132.98C190.938 132.98 191.596 133.624 191.596 134.772V139H192.814V134.702C192.814 132.91 191.736 131.818 190.098 131.818ZM195.368 136.06H201.234C201.262 135.878 201.276 135.696 201.276 135.514C201.276 133.554 199.904 131.818 197.79 131.818C195.606 131.818 194.122 133.428 194.122 135.5C194.122 137.6 195.62 139.182 197.874 139.182C199.274 139.182 200.338 138.552 200.954 137.6L199.918 137.012C199.568 137.586 198.868 138.034 197.902 138.034C196.6 138.034 195.606 137.32 195.368 136.06ZM197.79 132.966C198.84 132.966 199.834 133.61 200.044 134.996H195.368C195.564 133.778 196.474 132.966 197.79 132.966ZM207.289 132L205.273 137.488L202.893 132H201.591L204.643 138.972L204.517 139.238C204.153 140.162 203.565 140.736 202.627 140.666V141.8C204.055 141.898 205.147 141.002 205.735 139.434L208.591 132H207.289ZM216.79 129.2H213.234V139H214.536V135.5H216.79C218.596 135.5 219.954 134.128 219.954 132.35C219.954 130.558 218.596 129.2 216.79 129.2ZM216.79 134.282H214.536V130.418H216.79C217.868 130.418 218.666 131.23 218.666 132.35C218.666 133.456 217.868 134.282 216.79 134.282ZM222.433 133.176V132H221.215V139H222.433V135.29C222.433 133.638 223.567 133.106 224.617 133.148V131.874C223.735 131.874 222.881 132.196 222.433 133.176ZM228.716 139.182C230.76 139.182 232.412 137.572 232.412 135.5C232.412 133.428 230.76 131.818 228.716 131.818C226.672 131.818 225.034 133.428 225.034 135.5C225.034 137.572 226.672 139.182 228.716 139.182ZM228.716 137.992C227.33 137.992 226.252 136.914 226.252 135.5C226.252 134.086 227.33 133.008 228.716 133.008C230.116 133.008 231.194 134.086 231.194 135.5C231.194 136.914 230.116 137.992 228.716 137.992ZM237.505 133.176V132H235.643V130.04L234.425 130.404V132H233.039V133.176H234.425V136.97C234.425 138.72 235.405 139.28 237.505 139V137.908C236.259 137.964 235.643 138.034 235.643 136.97V133.176H237.505ZM239.446 136.06H245.312C245.34 135.878 245.354 135.696 245.354 135.514C245.354 133.554 243.982 131.818 241.868 131.818C239.684 131.818 238.2 133.428 238.2 135.5C238.2 137.6 239.698 139.182 241.952 139.182C243.352 139.182 244.416 138.552 245.032 137.6L243.996 137.012C243.646 137.586 242.946 138.034 241.98 138.034C240.678 138.034 239.684 137.32 239.446 136.06ZM241.868 132.966C242.918 132.966 243.912 133.61 244.122 134.996H239.446C239.642 133.778 240.552 132.966 241.868 132.966ZM250.03 139.182C251.402 139.182 252.592 138.454 253.18 137.362L252.144 136.76C251.752 137.488 250.982 137.978 250.03 137.978C248.63 137.978 247.566 136.9 247.566 135.5C247.566 134.086 248.63 133.008 250.03 133.008C250.968 133.008 251.752 133.498 252.102 134.24L253.124 133.652C252.592 132.546 251.416 131.818 250.03 131.818C247.916 131.818 246.348 133.428 246.348 135.5C246.348 137.572 247.916 139.182 250.03 139.182ZM258.191 133.176V132H256.329V130.04L255.111 130.404V132H253.725V133.176H255.111V136.97C255.111 138.72 256.091 139.28 258.191 139V137.908C256.945 137.964 256.329 138.034 256.329 136.97V133.176H258.191ZM260.249 130.726C260.697 130.726 261.061 130.362 261.061 129.914C261.061 129.466 260.697 129.088 260.249 129.088C259.787 129.088 259.423 129.466 259.423 129.914C259.423 130.362 259.787 130.726 260.249 130.726ZM259.633 139H260.851V132H259.633V139ZM265.999 139.182C268.043 139.182 269.695 137.572 269.695 135.5C269.695 133.428 268.043 131.818 265.999 131.818C263.955 131.818 262.317 133.428 262.317 135.5C262.317 137.572 263.955 139.182 265.999 139.182ZM265.999 137.992C264.613 137.992 263.535 136.914 263.535 135.5C263.535 134.086 264.613 133.008 265.999 133.008C267.399 133.008 268.477 134.086 268.477 135.5C268.477 136.914 267.399 137.992 265.999 137.992ZM274.617 131.818C273.637 131.818 272.867 132.182 272.349 133.008V132H271.131V139H272.349V135.29C272.349 133.638 273.259 132.98 274.379 132.98C275.457 132.98 276.115 133.624 276.115 134.772V139H277.333V134.702C277.333 132.91 276.255 131.818 274.617 131.818Z" fill="#BDF3FF"/>
<path id="Data Protection" d="M73.872 192.2H70.05V202H73.872C76.574 202 78.52 199.816 78.52 197.1C78.52 194.384 76.574 192.2 73.872 192.2ZM73.872 200.768H71.352V193.432H73.872C75.888 193.432 77.274 195.028 77.274 197.1C77.274 199.172 75.888 200.768 73.872 200.768ZM85.7688 195V196.204C85.2088 195.35 84.3128 194.818 83.1228 194.818C81.1768 194.818 79.5808 196.428 79.5808 198.5C79.5808 200.572 81.1768 202.182 83.1228 202.182C84.3128 202.182 85.2088 201.65 85.7688 200.796V202H86.9868V195H85.7688ZM83.2768 201.006C81.8768 201.006 80.7988 199.928 80.7988 198.5C80.7988 197.072 81.8768 195.994 83.2768 195.994C84.6908 195.994 85.7688 197.072 85.7688 198.5C85.7688 199.928 84.6908 201.006 83.2768 201.006ZM92.6402 196.176V195H90.7782V193.04L89.5602 193.404V195H88.1742V196.176H89.5602V199.97C89.5602 201.72 90.5402 202.28 92.6402 202V200.908C91.3942 200.964 90.7782 201.034 90.7782 199.97V196.176H92.6402ZM99.5227 195V196.204C98.9627 195.35 98.0667 194.818 96.8767 194.818C94.9307 194.818 93.3347 196.428 93.3347 198.5C93.3347 200.572 94.9307 202.182 96.8767 202.182C98.0667 202.182 98.9627 201.65 99.5227 200.796V202H100.741V195H99.5227ZM97.0307 201.006C95.6307 201.006 94.5527 199.928 94.5527 198.5C94.5527 197.072 95.6307 195.994 97.0307 195.994C98.4447 195.994 99.5227 197.072 99.5227 198.5C99.5227 199.928 98.4447 201.006 97.0307 201.006ZM109.768 192.2H106.212V202H107.514V198.5H109.768C111.574 198.5 112.932 197.128 112.932 195.35C112.932 193.558 111.574 192.2 109.768 192.2ZM109.768 197.282H107.514V193.418H109.768C110.846 193.418 111.644 194.23 111.644 195.35C111.644 196.456 110.846 197.282 109.768 197.282ZM115.412 196.176V195H114.194V202H115.412V198.29C115.412 196.638 116.546 196.106 117.596 196.148V194.874C116.714 194.874 115.86 195.196 115.412 196.176ZM121.694 202.182C123.738 202.182 125.39 200.572 125.39 198.5C125.39 196.428 123.738 194.818 121.694 194.818C119.65 194.818 118.012 196.428 118.012 198.5C118.012 200.572 119.65 202.182 121.694 202.182ZM121.694 200.992C120.308 200.992 119.23 199.914 119.23 198.5C119.23 197.086 120.308 196.008 121.694 196.008C123.094 196.008 124.172 197.086 124.172 198.5C124.172 199.914 123.094 200.992 121.694 200.992ZM130.484 196.176V195H128.622V193.04L127.404 193.404V195H126.018V196.176H127.404V199.97C127.404 201.72 128.384 202.28 130.484 202V200.908C129.238 200.964 128.622 201.034 128.622 199.97V196.176H130.484ZM132.424 199.06H138.29C138.318 198.878 138.332 198.696 138.332 198.514C138.332 196.554 136.96 194.818 134.846 194.818C132.662 194.818 131.178 196.428 131.178 198.5C131.178 200.6 132.676 202.182 134.93 202.182C136.33 202.182 137.394 201.552 138.01 200.6L136.974 200.012C136.624 200.586 135.924 201.034 134.958 201.034C133.656 201.034 132.662 200.32 132.424 199.06ZM134.846 195.966C135.896 195.966 136.89 196.61 137.1 197.996H132.424C132.62 196.778 133.53 195.966 134.846 195.966ZM143.009 202.182C144.381 202.182 145.571 201.454 146.159 200.362L145.123 199.76C144.731 200.488 143.961 200.978 143.009 200.978C141.609 200.978 140.545 199.9 140.545 198.5C140.545 197.086 141.609 196.008 143.009 196.008C143.947 196.008 144.731 196.498 145.081 197.24L146.103 196.652C145.571 195.546 144.395 194.818 143.009 194.818C140.895 194.818 139.327 196.428 139.327 198.5C139.327 200.572 140.895 202.182 143.009 202.182ZM151.17 196.176V195H149.308V193.04L148.09 193.404V195H146.704V196.176H148.09V199.97C148.09 201.72 149.07 202.28 151.17 202V200.908C149.924 200.964 149.308 201.034 149.308 199.97V196.176H151.17ZM153.228 193.726C153.676 193.726 154.04 193.362 154.04 192.914C154.04 192.466 153.676 192.088 153.228 192.088C152.766 192.088 152.402 192.466 152.402 192.914C152.402 193.362 152.766 193.726 153.228 193.726ZM152.611 202H153.83V195H152.611V202ZM158.978 202.182C161.022 202.182 162.674 200.572 162.674 198.5C162.674 196.428 161.022 194.818 158.978 194.818C156.934 194.818 155.296 196.428 155.296 198.5C155.296 200.572 156.934 202.182 158.978 202.182ZM158.978 200.992C157.592 200.992 156.514 199.914 156.514 198.5C156.514 197.086 157.592 196.008 158.978 196.008C160.378 196.008 161.456 197.086 161.456 198.5C161.456 199.914 160.378 200.992 158.978 200.992ZM167.596 194.818C166.616 194.818 165.846 195.182 165.328 196.008V195H164.11V202H165.328V198.29C165.328 196.638 166.238 195.98 167.358 195.98C168.436 195.98 169.094 196.624 169.094 197.772V202H170.312V197.702C170.312 195.91 169.234 194.818 167.596 194.818Z" fill="#BDF3FF"/>
<path id="Fast &#38; Secure" d="M234.692 243.432V242.2H229.05V252H230.352V247.842H234.51V246.61H230.352V243.432H234.692ZM241.939 245V246.204C241.379 245.35 240.483 244.818 239.293 244.818C237.347 244.818 235.751 246.428 235.751 248.5C235.751 250.572 237.347 252.182 239.293 252.182C240.483 252.182 241.379 251.65 241.939 250.796V252H243.157V245H241.939ZM239.447 251.006C238.047 251.006 236.969 249.928 236.969 248.5C236.969 247.072 238.047 245.994 239.447 245.994C240.861 245.994 241.939 247.072 241.939 248.5C241.939 249.928 240.861 251.006 239.447 251.006ZM246.038 246.89C246.038 246.26 246.654 245.952 247.284 245.952C247.9 245.952 248.516 246.218 248.782 246.848L249.804 246.274C249.356 245.364 248.432 244.818 247.284 244.818C245.87 244.818 244.806 245.672 244.806 246.904C244.806 249.438 248.726 248.584 248.726 250.082C248.726 250.768 248.082 251.034 247.34 251.034C246.472 251.034 245.828 250.614 245.604 249.942L244.554 250.544C244.96 251.51 245.94 252.182 247.34 252.182C248.838 252.182 249.958 251.384 249.958 250.082C249.958 247.506 246.038 248.388 246.038 246.89ZM254.935 246.176V245H253.073V243.04L251.855 243.404V245H250.469V246.176H251.855V249.97C251.855 251.72 252.835 252.28 254.935 252V250.908C253.689 250.964 253.073 251.034 253.073 249.97V246.176H254.935ZM267.94 251.594L266.638 250.208C267.016 249.578 267.268 248.85 267.394 248.122L266.274 247.478C266.176 248.164 266.008 248.766 265.77 249.256L263.096 246.4C262.606 245.882 262.228 245.406 262.228 244.734C262.228 243.852 262.956 243.278 263.838 243.278C264.678 243.278 265.364 243.796 265.644 244.65L266.736 244.02C266.26 242.746 265.098 242.018 263.81 242.018C262.284 242.018 260.926 243.068 260.926 244.748C260.926 245.518 261.192 246.064 261.556 246.526C260.352 247.128 259.764 248.192 259.764 249.354C259.764 251.104 261.122 252.182 263.054 252.182C264.258 252.182 265.182 251.79 265.854 251.16L266.848 252.224L267.94 251.594ZM263.082 250.95C261.808 250.95 261.066 250.306 261.066 249.27C261.066 248.598 261.402 247.828 262.368 247.422L265.014 250.264C264.51 250.712 263.866 250.95 263.082 250.95ZM275.978 252.182C277.98 252.182 279.366 251.09 279.366 249.368C279.366 247.478 277.756 246.974 276.048 246.414C274.676 245.98 273.99 245.644 273.99 244.734C273.99 243.838 274.718 243.278 275.768 243.278C276.958 243.278 277.644 243.95 277.994 244.79L279.086 244.16C278.54 242.928 277.378 242.018 275.768 242.018C274.13 242.018 272.688 243.026 272.688 244.79C272.688 246.61 274.2 247.1 275.768 247.604C277.21 248.052 278.078 248.388 278.078 249.396C278.078 250.278 277.392 250.908 276.006 250.908C274.578 250.908 273.738 250.208 273.388 249.13L272.268 249.774C272.786 251.244 274.116 252.182 275.978 252.182ZM281.799 249.06H287.665C287.693 248.878 287.707 248.696 287.707 248.514C287.707 246.554 286.335 244.818 284.221 244.818C282.037 244.818 280.553 246.428 280.553 248.5C280.553 250.6 282.051 252.182 284.305 252.182C285.705 252.182 286.769 251.552 287.385 250.6L286.349 250.012C285.999 250.586 285.299 251.034 284.333 251.034C283.031 251.034 282.037 250.32 281.799 249.06ZM284.221 245.966C285.271 245.966 286.265 246.61 286.475 247.996H281.799C281.995 246.778 282.905 245.966 284.221 245.966ZM292.384 252.182C293.756 252.182 294.946 251.454 295.534 250.362L294.498 249.76C294.106 250.488 293.336 250.978 292.384 250.978C290.984 250.978 289.92 249.9 289.92 248.5C289.92 247.086 290.984 246.008 292.384 246.008C293.322 246.008 294.106 246.498 294.456 247.24L295.478 246.652C294.946 245.546 293.77 244.818 292.384 244.818C290.27 244.818 288.702 246.428 288.702 248.5C288.702 250.572 290.27 252.182 292.384 252.182ZM301.58 245V248.71C301.58 250.362 300.67 251.02 299.55 251.02C298.472 251.02 297.814 250.376 297.814 249.228V245H296.596V249.298C296.596 251.09 297.674 252.182 299.312 252.182C300.292 252.182 301.062 251.818 301.58 250.992V252H302.798V245H301.58ZM305.871 246.176V245H304.653V252H305.871V248.29C305.871 246.638 307.005 246.106 308.055 246.148V244.874C307.173 244.874 306.319 245.196 305.871 246.176ZM309.717 249.06H315.583C315.611 248.878 315.625 248.696 315.625 248.514C315.625 246.554 314.253 244.818 312.139 244.818C309.955 244.818 308.471 246.428 308.471 248.5C308.471 250.6 309.969 252.182 312.223 252.182C313.623 252.182 314.687 251.552 315.303 250.6L314.267 250.012C313.917 250.586 313.217 251.034 312.251 251.034C310.949 251.034 309.955 250.32 309.717 249.06ZM312.139 245.966C313.189 245.966 314.183 246.61 314.393 247.996H309.717C309.913 246.778 310.823 245.966 312.139 245.966Z" fill="#BDF3FF"/>
<g id="simple-icons:marketo_5" clip-path="url(#clip4_1_162)">
<path id="Vector_5" d="M76.9278 30.1819V65.749L86.0182 58.5081V35.1227L76.9278 30.1819ZM72.6998 57.9805L65.3804 61.1771V33.2733L72.6998 35.4399V57.9805ZM55.5505 57.161L61.1524 55.6805V37.8703L55.5772 36.9722L55.5505 57.161Z" fill="url(#paint8_linear_1_162)"/>
</g>
<g id="whh:protecteddirectory" clip-path="url(#clip5_1_162)">
<path id="Vector_6" d="M131.845 170.725H108.85C107.792 170.725 106.889 170.352 106.14 169.608C105.392 168.864 105.018 167.966 105.018 166.914V151.671C105.018 151.155 105.202 150.708 105.571 150.331C105.941 149.954 106.395 149.765 106.934 149.765H121.306C121.306 149.626 121.42 149.349 121.65 148.932C121.879 148.515 122.104 148.128 122.324 147.771L122.683 147.265C122.823 146.887 123.102 146.575 123.521 146.327C123.94 146.079 124.38 145.955 124.839 145.955H132.025C132.504 145.955 132.953 146.079 133.372 146.327C133.791 146.575 134.071 146.887 134.21 147.265C135.188 148.535 135.677 149.368 135.677 149.765V166.914C135.677 167.966 135.303 168.864 134.555 169.608C133.806 170.352 132.903 170.725 131.845 170.725V170.725ZM124.18 157.387C124.18 156.335 123.806 155.437 123.057 154.693C122.309 153.948 121.405 153.576 120.347 153.576C119.29 153.576 118.386 153.948 117.638 154.693C116.889 155.437 116.515 156.335 116.515 157.387C116.515 158.161 116.74 158.87 117.189 159.516C117.638 160.161 118.222 160.622 118.94 160.9L116.515 166.914H124.18L121.755 160.9C122.473 160.622 123.057 160.161 123.506 159.516C123.955 158.87 124.18 158.161 124.18 157.387ZM106.395 145.359C106.535 144.982 106.814 144.669 107.233 144.421C107.652 144.173 108.092 144.049 108.551 144.049H115.737C116.216 144.049 116.665 144.173 117.084 144.421C117.503 144.669 117.792 144.982 117.952 145.359L119.389 147.86H105.018L106.395 145.359Z" fill="url(#paint9_linear_1_162)"/>
</g>
<g id="ri:secure-payment-fill">
<path id="Vector_7" d="M221.302 84.9031L232.117 88.2819C232.419 88.3761 232.682 88.5642 232.869 88.8188C233.057 89.0735 233.157 89.3812 233.157 89.6972V92.3129H236.121C236.514 92.3129 236.891 92.469 237.169 92.7469C237.447 93.0249 237.603 93.4018 237.603 93.7948V96.7588H218.338V93.7948C218.338 93.4018 218.494 93.0249 218.772 92.7469C219.05 92.469 219.427 92.3129 219.82 92.3129H230.193V90.7865L221.302 88.0063L212.41 90.7865V101.759C212.41 102.666 212.618 103.561 213.018 104.376C213.418 105.19 214 105.901 214.719 106.455L214.999 106.657L221.302 110.956L226.906 107.132H219.82C219.427 107.132 219.05 106.976 218.772 106.698C218.494 106.421 218.338 106.044 218.338 105.651V99.7227H237.603V105.651C237.603 106.044 237.447 106.421 237.169 106.698C236.891 106.976 236.514 107.132 236.121 107.132L231.349 107.134C230.776 107.89 230.079 108.557 229.275 109.105L221.302 114.542L213.329 109.106C212.132 108.291 211.153 107.195 210.476 105.914C209.799 104.634 209.446 103.207 209.446 101.759V89.6972C209.446 89.3815 209.547 89.074 209.734 88.8197C209.921 88.5654 210.185 88.3775 210.486 88.2834L221.302 84.9031Z" fill="url(#paint10_linear_1_162)"/>
</g>
<g id="healthicons:ui-secure-negative" clip-path="url(#clip6_1_162)">
<g id="Group">
<path id="Vector_8" d="M268.67 205.401H275.784V204.216C275.784 203.272 275.409 202.368 274.742 201.701C274.075 201.034 273.17 200.659 272.227 200.659C271.284 200.659 270.379 201.034 269.712 201.701C269.045 202.368 268.67 203.272 268.67 204.216V205.401Z" fill="url(#paint11_linear_1_162)"/>
<path id="Vector_9" d="M266.892 210.143H277.562V208.958H266.892V210.143Z" fill="url(#paint12_linear_1_162)"/>
<path id="Vector_10" d="M277.562 213.107H266.892V211.922H277.562V213.107Z" fill="url(#paint13_linear_1_162)"/>
<path id="Vector_11" d="M266.892 216.071H277.562V214.886H266.892V216.071Z" fill="url(#paint14_linear_1_162)"/>
<path id="Vector_12" fill-rule="evenodd" clip-rule="evenodd" d="M258 194.731H286.454V223.185H258V194.731ZM264.521 205.401C264.206 205.401 263.905 205.526 263.682 205.748C263.46 205.971 263.335 206.272 263.335 206.587V218.442C263.335 218.757 263.46 219.058 263.682 219.281C263.905 219.503 264.206 219.628 264.521 219.628H279.933C280.247 219.628 280.549 219.503 280.771 219.281C280.994 219.058 281.119 218.757 281.119 218.442V206.587C281.119 206.272 280.994 205.971 280.771 205.748C280.549 205.526 280.247 205.401 279.933 205.401H278.155V204.216C278.155 200.942 275.501 198.288 272.227 198.288C268.953 198.288 266.299 200.942 266.299 204.216V205.401H264.521Z" fill="url(#paint15_linear_1_162)"/>
</g>
</g>
</g>
<defs>
<filter id="filter0_f_1_162" x="-45.3286" y="-60" width="182.242" height="172.017" filterUnits="userSpaceOnUse" color-interpolation-filters="sRGB">
<feFlood flood-opacity="0" result="BackgroundImageFix"/>
<feBlend mode="normal" in="SourceGraphic" in2="BackgroundImageFix" result="shape"/>
<feGaussianBlur stdDeviation="30" result="effect1_foregroundBlur_1_162"/>
</filter>
<filter id="filter1_b_1_162" x="-50" y="-40.2191" width="240.935" height="201.811" filterUnits="userSpaceOnUse" color-interpolation-filters="sRGB">
<feFlood flood-opacity="0" result="BackgroundImageFix"/>
<feGaussianBlur in="BackgroundImage" stdDeviation="25"/>
<feComposite in2="SourceAlpha" operator="in" result="effect1_backgroundBlur_1_162"/>
<feBlend mode="normal" in="SourceGraphic" in2="effect1_backgroundBlur_1_162" result="shape"/>
</filter>
<filter id="filter2_f_1_162" x="155.848" y="-4.73755" width="177.797" height="172.017" filterUnits="userSpaceOnUse" color-interpolation-filters="sRGB">
<feFlood flood-opacity="0" result="BackgroundImageFix"/>
<feBlend mode="normal" in="SourceGraphic" in2="BackgroundImageFix" result="shape"/>
<feGaussianBlur stdDeviation="30" result="effect1_foregroundBlur_1_162"/>
</filter>
<filter id="filter3_f_1_162" x="13.3572" y="62.2618" width="169.349" height="163.125" filterUnits="userSpaceOnUse" color-interpolation-filters="sRGB">
<feFlood flood-opacity="0" result="BackgroundImageFix"/>
<feBlend mode="normal" in="SourceGraphic" in2="BackgroundImageFix" result="shape"/>
<feGaussianBlur stdDeviation="30" result="effect1_foregroundBlur_1_162"/>
</filter>
<filter id="filter4_f_1_162" x="213.2" y="113.389" width="163.125" height="163.125" filterUnits="userSpaceOnUse" color-interpolation-filters="sRGB">
<feFlood flood-opacity="0" result="BackgroundImageFix"/>
<feBlend mode="normal" in="SourceGraphic" in2="BackgroundImageFix" result="shape"/>
<feGaussianBlur stdDeviation="30" result="effect1_foregroundBlur_1_162"/>
</filter>
<filter id="filter5_b_1_162" x="0" y="73.5956" width="240.935" height="201.811" filterUnits="userSpaceOnUse" color-interpolation-filters="sRGB">
<feFlood flood-opacity="0" result="BackgroundImageFix"/>
<feGaussianBlur in="BackgroundImage" stdDeviation="25"/>
<feComposite in2="SourceAlpha" operator="in" result="effect1_backgroundBlur_1_162"/>
<feBlend mode="normal" in="SourceGraphic" in2="effect1_backgroundBlur_1_162" result="shape"/>
</filter>
<filter id="filter6_b_1_162" x="102" y="11.0421" width="241.379" height="201.811" filterUnits="userSpaceOnUse" color-interpolation-filters="sRGB">
<feFlood flood-opacity="0" result="BackgroundImageFix"/>
<feGaussianBlur in="BackgroundImage" stdDeviation="25"/>
<feComposite in2="SourceAlpha" operator="in" result="effect1_backgroundBlur_1_162"/>
<feBlend mode="normal" in="SourceGraphic" in2="effect1_backgroundBlur_1_162" result="shape"/>
</filter>
<filter id="filter7_b_1_162" x="152" y="123.834" width="241.379" height="201.811" filterUnits="userSpaceOnUse" color-interpolation-filters="sRGB">
<feFlood flood-opacity="0" result="BackgroundImageFix"/>
<feGaussianBlur in="BackgroundImage" stdDeviation="25"/>
<feComposite in2="SourceAlpha" operator="in" result="effect1_backgroundBlur_1_162"/>
<feBlend mode="normal" in="SourceGraphic" in2="effect1_backgroundBlur_1_162" result="shape"/>
</filter>
<linearGradient id="paint0_linear_1_162" x1="70.4673" y1="-21.0529" x2="70.4673" y2="157.323" gradientUnits="userSpaceOnUse">
<stop stop-color="white" stop-opacity="0.03"/>
<stop offset="1" stop-color="white" stop-opacity="0"/>
</linearGradient>
<linearGradient id="paint1_linear_1_162" x1="156.016" y1="111.592" x2="10.6797" y2="-28.1533" gradientUnits="userSpaceOnUse">
<stop stop-color="#F5FBF2" stop-opacity="0.44"/>
<stop offset="1" stop-color="#F5FBF2" stop-opacity="0"/>
</linearGradient>
<linearGradient id="paint2_linear_1_162" x1="120.467" y1="92.7618" x2="120.467" y2="271.137" gradientUnits="userSpaceOnUse">
<stop stop-color="white" stop-opacity="0.03"/>
<stop offset="1" stop-color="white" stop-opacity="0"/>
</linearGradient>
<linearGradient id="paint3_linear_1_162" x1="206.016" y1="225.406" x2="60.6797" y2="85.6614" gradientUnits="userSpaceOnUse">
<stop stop-color="#F5FBF2" stop-opacity="0.44"/>
<stop offset="1" stop-color="#F5FBF2" stop-opacity="0"/>
</linearGradient>
<linearGradient id="paint4_linear_1_162" x1="222.69" y1="30.2083" x2="222.69" y2="208.584" gradientUnits="userSpaceOnUse">
<stop stop-color="white" stop-opacity="0.03"/>
<stop offset="1" stop-color="white" stop-opacity="0"/>
</linearGradient>
<linearGradient id="paint5_linear_1_162" x1="308.508" y1="162.853" x2="163.155" y2="22.6505" gradientUnits="userSpaceOnUse">
<stop stop-color="#F5FBF2" stop-opacity="0.44"/>
<stop offset="1" stop-color="#F5FBF2" stop-opacity="0"/>
</linearGradient>
<linearGradient id="paint6_linear_1_162" x1="272.69" y1="143" x2="272.69" y2="321.376" gradientUnits="userSpaceOnUse">
<stop stop-color="white" stop-opacity="0.03"/>
<stop offset="1" stop-color="white" stop-opacity="0"/>
</linearGradient>
<linearGradient id="paint7_linear_1_162" x1="358.508" y1="275.645" x2="213.155" y2="135.442" gradientUnits="userSpaceOnUse">
<stop stop-color="#F5FBF2" stop-opacity="0.44"/>
<stop offset="1" stop-color="#F5FBF2" stop-opacity="0"/>
</linearGradient>
<linearGradient id="paint8_linear_1_162" x1="70.7844" y1="30.1819" x2="112.309" y2="40.2493" gradientUnits="userSpaceOnUse">
<stop stop-color="#F7BC51"/>
<stop offset="0.609375" stop-color="#60E7CE" stop-opacity="0.5"/>
<stop offset="1" stop-color="#060ED0" stop-opacity="0.28"/>
</linearGradient>
<linearGradient id="paint9_linear_1_162" x1="120.347" y1="144.049" x2="160.357" y2="157.064" gradientUnits="userSpaceOnUse">
<stop stop-color="#05D2FF"/>
<stop offset="0.609375" stop-color="#253FE0" stop-opacity="0.619792"/>
<stop offset="1" stop-color="#060ED0" stop-opacity="0.28"/>
</linearGradient>
<linearGradient id="paint10_linear_1_162" x1="223.525" y1="84.9031" x2="261.417" y2="95.0912" gradientUnits="userSpaceOnUse">
<stop stop-color="#FD5A14"/>
<stop offset="0.609375" stop-color="#FFF06B" stop-opacity="0.59"/>
<stop offset="1" stop-color="#060ED0" stop-opacity="0.28"/>
</linearGradient>
<linearGradient id="paint11_linear_1_162" x1="272.227" y1="200.659" x2="280.924" y2="204.351" gradientUnits="userSpaceOnUse">
<stop stop-color="#00DD9C"/>
<stop offset="0.609375" stop-color="#253FE0" stop-opacity="0.619792"/>
<stop offset="1" stop-color="#060ED0" stop-opacity="0.28"/>
</linearGradient>
<linearGradient id="paint12_linear_1_162" x1="272.227" y1="208.958" x2="274.283" y2="214.195" gradientUnits="userSpaceOnUse">
<stop stop-color="#00DD9C"/>
<stop offset="0.609375" stop-color="#253FE0" stop-opacity="0.619792"/>
<stop offset="1" stop-color="#060ED0" stop-opacity="0.28"/>
</linearGradient>
<linearGradient id="paint13_linear_1_162" x1="272.227" y1="211.922" x2="274.283" y2="217.159" gradientUnits="userSpaceOnUse">
<stop stop-color="#00DD9C"/>
<stop offset="0.609375" stop-color="#253FE0" stop-opacity="0.619792"/>
<stop offset="1" stop-color="#060ED0" stop-opacity="0.28"/>
</linearGradient>
<linearGradient id="paint14_linear_1_162" x1="272.227" y1="214.886" x2="274.283" y2="220.123" gradientUnits="userSpaceOnUse">
<stop stop-color="#00DD9C"/>
<stop offset="0.609375" stop-color="#253FE0" stop-opacity="0.619792"/>
<stop offset="1" stop-color="#060ED0" stop-opacity="0.28"/>
</linearGradient>
<linearGradient id="paint15_linear_1_162" x1="272.227" y1="194.731" x2="310.241" y2="205.49" gradientUnits="userSpaceOnUse">
<stop stop-color="#00DD9C"/>
<stop offset="0.609375" stop-color="#253FE0" stop-opacity="0.619792"/>
<stop offset="1" stop-color="#060ED0" stop-opacity="0.28"/>
</linearGradient>
<clipPath id="clip0_1_162">
<rect width="62.2424" height="52.0168" fill="white" transform="translate(14.6714)"/>
</clipPath>
<clipPath id="clip1_1_162">
<rect width="57.7965" height="52.0168" fill="white" transform="translate(215.848 55.2625)"/>
</clipPath>
<clipPath id="clip2_1_162">
<rect width="49.3493" height="43.1251" fill="white" transform="translate(73.3572 122.262)"/>
</clipPath>
<clipPath id="clip3_1_162">
<rect width="43.1251" height="43.1251" fill="white" transform="translate(273.2 173.389)"/>
</clipPath>
<clipPath id="clip4_1_162">
<rect width="35.5671" height="35.5671" fill="white" transform="translate(53 30.1819)"/>
</clipPath>
<clipPath id="clip5_1_162">
<rect width="30.6949" height="26.6753" fill="white" transform="translate(105 144.049)"/>
</clipPath>
<clipPath id="clip6_1_162">
<rect width="28.4537" height="28.4537" fill="white" transform="translate(258 194.731)"/>
</clipPath>
</defs>
</svg>
