<svg width="310" height="25" viewBox="0 0 310 25" fill="none" xmlns="http://www.w3.org/2000/svg">
<path fill-rule="evenodd" clip-rule="evenodd" d="M79.4436 18.5549C81.2732 18.5549 82.9504 17.7549 84.1193 16.5549C84.3734 16.2549 84.9324 15.7049 84.8816 15.8049L88.7949 19.9549C86.5587 22.6049 83.2045 24.3049 79.3928 24.3049C72.6334 24.3049 67.1954 18.9549 67.1954 12.3049C67.1954 5.65493 72.6334 0.304932 79.3928 0.304932C83.0012 0.304932 86.2538 1.85493 88.49 4.30493L84.5767 8.45493L83.6619 7.55493C82.5438 6.55493 81.0699 5.95493 79.4436 5.95493C75.9369 5.95493 73.04 8.75493 73.04 12.2549C73.04 15.7049 75.8861 18.5549 79.4436 18.5549ZM229.979 23.9049C231.809 23.9049 233.08 22.6549 233.08 20.8549C233.08 19.1049 231.809 17.9049 229.979 17.8549C228.201 17.8549 226.93 19.1049 226.93 20.8549C226.93 22.6549 228.201 23.9049 229.979 23.9049ZM130.418 16.6549C129.25 17.8549 127.572 18.6549 125.743 18.6549C122.185 18.6549 119.339 15.8049 119.339 12.3549C119.339 8.85493 122.236 6.05493 125.743 6.05493C127.369 6.05493 128.843 6.65493 129.961 7.65493L130.876 8.55493L134.84 4.30493C132.604 1.85493 129.351 0.304932 125.743 0.304932C118.983 0.304932 113.545 5.65493 113.545 12.3049C113.545 18.9549 118.983 24.3049 125.743 24.3049C129.554 24.3049 132.909 22.6049 135.145 19.9549L131.232 15.8049C131.232 15.8049 130.673 16.3549 130.418 16.6549ZM247.107 18.5549C248.936 18.5549 250.613 17.7549 251.782 16.5549C252.036 16.2549 252.595 15.7049 252.545 15.8049L256.458 19.9549C254.222 22.6049 250.867 24.3049 247.056 24.3049C240.296 24.3049 234.858 18.9549 234.858 12.3049C234.858 5.65493 240.296 0.304932 247.056 0.304932C250.664 0.304932 253.917 1.85493 256.153 4.30493L252.24 8.45493L251.325 7.55493C250.207 6.55493 248.733 5.95493 247.107 5.95493C243.6 5.95493 240.703 8.75493 240.703 12.2549C240.703 15.7049 243.549 18.5549 247.107 18.5549ZM17.1354 11.8049C19.2191 10.9049 20.7438 9.35493 20.7438 6.65493V6.60493C20.7438 5.00493 20.1847 3.80493 19.2191 2.90493C17.8469 1.50493 15.814 0.804932 12.8663 0.804932H0.668945V23.8049H12.9171C18.5076 23.8049 21.7602 21.4049 21.7602 17.4549V17.4049C21.7602 14.2549 19.9814 12.7049 17.1354 11.8049ZM7.17421 5.90493H11.3925C13.3237 5.90493 14.3402 6.60493 14.3402 7.85493V7.90493C14.3402 9.25493 13.2221 9.90493 11.24 9.90493H7.17421V5.90493ZM15.3058 16.6049C15.3058 17.9549 14.1877 18.7049 12.2056 18.7049H7.17421V14.4549H12.104C14.2893 14.4549 15.255 15.2549 15.255 16.5049V16.6049H15.3058ZM23.7931 0.804932H30.2984V18.2549H40.8186V23.8049H23.7931V0.804932ZM153.034 9.40493H144.7V0.804932H138.194V23.8549L144.7 23.8049V15.0549H153.034V23.8049H159.54V0.804932H153.034V9.40493ZM172.296 0.804932H178.496L188.407 23.8049H181.495L179.818 19.7049H170.873L169.196 23.8049H162.437L172.296 0.804932ZM175.295 8.30493L172.703 14.8049H177.887L175.295 8.30493ZM197.809 0.804932H191.304V23.8549H197.809V0.804932ZM216.613 13.0049V0.854932H223.118V23.8549H217.376L207.364 11.2049V23.8549H200.858V0.804932L206.957 0.854932L216.613 13.0049ZM113.647 0.804932H105.973L97.8921 10.1549V0.804932H91.3869V23.8549H97.8921V17.9049L100.281 15.3049L106.837 23.8549H114.562L104.499 10.7049L113.647 0.804932ZM41.3268 12.3049C41.3268 5.65493 46.7648 0.304932 53.5242 0.304932C60.2328 0.304932 65.7216 5.65493 65.7216 12.3049C65.7216 18.9549 60.2836 24.3049 53.5242 24.3049C46.7648 24.3049 41.3268 18.9549 41.3268 12.3049ZM47.1206 12.3049C47.1206 15.7549 49.9666 18.6049 53.5242 18.6049C57.0818 18.6049 59.9278 15.8049 59.9278 12.3049C59.9278 8.85493 57.0818 6.00493 53.5242 6.00493C50.0175 6.00493 47.1206 8.80493 47.1206 12.3049ZM269.214 0.304932C262.455 0.304932 257.017 5.65493 257.017 12.3049C257.017 18.9549 262.455 24.3049 269.214 24.3049C275.974 24.3049 281.412 18.9549 281.412 12.3049C281.412 5.65493 275.974 0.304932 269.214 0.304932ZM269.214 18.6049C265.657 18.6049 262.811 15.7549 262.811 12.3049C262.811 8.80493 265.708 6.00493 269.214 6.00493C272.772 6.00493 275.618 8.85493 275.618 12.3049C275.669 15.8049 272.772 18.6049 269.214 18.6049ZM303.57 10.1549L298.895 21.4549H294.371L289.696 10.1549V23.7549H283.597V0.804932H291.017L296.658 13.5049L302.3 0.804932H309.669V23.7549H303.57V10.1549Z" fill="#00E3A5"/>
</svg>
