<svg width="150" height="34" viewBox="0 0 150 34" fill="none" xmlns="http://www.w3.org/2000/svg">
<path fill-rule="evenodd" clip-rule="evenodd" d="M12.2649 29.1447C13.4258 29.1447 14.4986 28.9305 15.5156 28.5273C15.5242 28.5474 17.5941 31.8107 17.6239 31.8333C15.7502 32.8551 13.7921 33.3049 11.6515 33.3049C5.28795 33.3049 0.668945 29.0502 0.668945 22.2579C0.668945 15.4165 5.52386 11.1617 11.6515 11.1617C13.8331 11.1617 15.5528 11.6418 17.2849 12.5817C17.0937 12.9042 15.3107 15.9759 15.3045 15.9885C14.2771 15.5737 13.1805 15.3641 12.0749 15.3711C8.30395 15.3711 5.38231 17.8104 5.38231 22.2579C5.38231 26.466 8.20959 29.1447 12.2649 29.1447ZM28.3147 11.1617C34.5838 11.1617 39.1085 15.6584 39.1085 22.2579C39.1085 28.8095 34.5838 33.3049 28.3147 33.3049C22.0939 33.3049 17.5693 28.8108 17.5693 22.2579C17.5693 15.6584 22.0939 11.1617 28.3147 11.1617ZM28.3147 15.2275C24.8281 15.2275 22.2814 17.954 22.2814 22.2579C22.2814 26.5152 24.8268 29.2404 28.3159 29.2404C31.8981 29.2404 34.3963 26.5152 34.3963 22.2579C34.3963 17.954 31.8981 15.2275 28.3147 15.2275ZM42.0785 32.8274V11.6392H46.7435V32.8274H42.0785ZM41.4651 5.13423C41.4651 3.50893 42.8335 2.21876 44.388 2.21876C45.9438 2.21876 47.3097 3.50893 47.3097 5.13549C47.3097 6.80993 45.9438 8.14923 44.388 8.14923C42.8335 8.14923 41.4651 6.80993 41.4651 5.13549V5.13423ZM50.8149 12.9798C53.7365 11.832 57.3212 11.1617 60.3832 11.1617C65.7099 11.1617 69.1034 13.2179 69.1034 19.1963V32.8274H64.4844V19.6272C64.4844 16.5668 62.5996 15.4656 60.0057 15.4656C58.3555 15.4656 56.7078 15.705 55.4811 16.088V32.8274H50.8149V12.9798ZM73.0109 0.304932H77.6759V12.215C78.6655 11.6884 80.5975 11.1617 82.4352 11.1617C88.4697 11.1617 92.9931 15.0826 92.9931 21.8749C92.9931 28.7138 88.5169 33.3049 80.7875 33.3049C78.1363 33.2971 75.5061 32.8283 73.0109 31.919V0.304932ZM77.6759 28.8108C78.5711 29.0968 79.7495 29.2391 80.9278 29.2391C85.2165 29.2391 88.2809 26.8491 88.2809 21.9694C88.2809 17.857 85.4065 15.4178 81.8715 15.4178C80.0338 15.4178 78.6183 15.8965 77.6746 16.4232L77.6759 28.8108ZM106.473 18.6217C106.473 16.3262 104.775 15.2754 102.466 15.2754C100.062 15.2754 98.177 15.9923 96.4337 16.9964V12.8828C98.2714 11.832 100.627 11.1617 103.221 11.1617C107.791 11.1617 111.043 13.0743 111.043 18.3824V32.3965C109.064 32.9219 106.238 33.2583 103.881 33.2583C98.4601 33.2583 94.5005 31.5839 94.5005 26.8012C94.5005 22.4973 98.1286 20.3932 104.162 20.3932H106.471L106.473 18.6217ZM106.473 23.5481H104.493C101.24 23.5481 99.1195 24.5056 99.1195 26.6576C99.1195 28.8574 101.1 29.7179 103.927 29.7179C104.635 29.7179 105.625 29.6222 106.473 29.4785V23.5481ZM114.437 27.0885C116.37 28.5701 118.678 29.4785 120.799 29.4785C122.874 29.4785 124.241 28.7616 124.241 27.0885C124.241 25.3649 123.015 24.7437 120.33 24.0268C115.992 23.0227 114.154 21.2537 114.154 17.571C114.154 13.2658 117.36 11.1617 121.601 11.1617C123.958 11.1617 125.843 11.6884 127.586 12.787V17.1401C125.748 15.802 123.958 14.9881 121.743 14.9881C119.716 14.9881 118.632 15.9923 118.632 17.3795C118.632 18.7654 119.526 19.4835 121.931 20.1513C126.693 21.2046 128.765 23.0239 128.765 26.8491C128.765 31.2966 125.419 33.3049 120.895 33.3049C118.444 33.3049 115.992 32.6372 114.438 31.5839L114.437 27.0885ZM135.153 23.3099V23.4057C135.436 27.1829 138.639 29.2391 141.891 29.2391C144.767 29.2391 146.842 28.5701 148.914 27.1829V31.3457C147.029 32.6838 144.248 33.3049 141.563 33.3049C135.058 33.3049 130.628 29.0968 130.628 22.4015C130.628 15.6584 134.963 11.163 140.714 11.163C146.793 11.163 149.669 15.1317 149.669 20.9173V23.3112L135.153 23.3099ZM145.285 20.2483C145.191 16.9473 143.59 15.1317 140.572 15.1317C137.886 15.1317 135.906 17.0456 135.294 20.2496L145.285 20.2483Z" fill="#00E3A5"/>
</svg>
